<svg width="60" height="60" viewBox="0 0 60 60" fill="none" xmlns="http://www.w3.org/2000/svg">
<path d="M29.9414 0.234375C34.9414 0.234375 39.0234 0.292969 42.1875 0.410156C44.8828 0.527344 47.2852 0.996094 49.3945 1.81641C51.4258 2.59766 53.1836 3.73047 54.668 5.21484C56.1523 6.69922 57.2852 8.45703 58.0664 10.4883C58.8867 12.5977 59.3555 15 59.4727 17.6953C59.5898 20.8594 59.6484 24.9414 59.6484 29.9414C59.6484 34.9414 59.5898 39.0234 59.4727 42.1875C59.3555 44.8828 58.8867 47.2852 58.0664 49.3945C57.2852 51.4258 56.1523 53.1836 54.668 54.668C53.1836 56.1523 51.4258 57.2852 49.3945 58.0664C47.2852 58.8867 44.8828 59.3555 42.1875 59.4727C39.0234 59.5898 34.9414 59.6484 29.9414 59.6484C24.9414 59.6484 20.8594 59.5898 17.6953 59.4727C15 59.3555 12.5977 58.8867 10.4883 58.0664C8.45703 57.2852 6.69922 56.1523 5.21484 54.668C3.73047 53.1836 2.59766 51.4258 1.81641 49.3945C0.996094 47.2852 0.527344 44.8828 0.410156 42.1875C0.292969 39.0234 0.234375 34.9414 0.234375 29.9414C0.234375 24.9414 0.292969 20.8594 0.410156 17.6953C0.527344 15 0.996094 12.5977 1.81641 10.4883C2.59766 8.45703 3.73047 6.69922 5.21484 5.21484C6.69922 3.73047 8.45703 2.59766 10.4883 1.81641C12.5977 0.996094 15 0.527344 17.6953 0.410156C20.8594 0.292969 24.9414 0.234375 29.9414 0.234375ZM29.9414 4.10156C24.7461 4.10156 20.5078 4.16016 17.2266 4.27734C15.1172 4.35547 13.1641 4.72656 11.3672 5.39062C8.55469 6.5625 6.5625 8.55469 5.39062 11.3672C4.72656 13.1641 4.35547 15.1172 4.27734 17.2266C4.16016 20.5078 4.10156 24.7461 4.10156 29.9414C4.10156 35.1367 4.16016 39.375 4.27734 42.6562C4.35547 44.7656 4.72656 46.7188 5.39062 48.5156C6.5625 51.3281 8.55469 53.3203 11.3672 54.4922C13.1641 55.1562 15.1172 55.5273 17.2266 55.6055C20.5078 55.7227 24.7461 55.7812 29.9414 55.7812C35.1367 55.7812 39.375 55.7227 42.6562 55.6055C44.7656 55.5273 46.7188 55.1562 48.5156 54.4922C51.3281 53.3203 53.3203 51.3281 54.4922 48.5156C55.1562 46.7188 55.5273 44.7656 55.6055 42.6562C55.7227 39.375 55.7812 35.1367 55.7812 29.9414C55.7812 24.7461 55.7227 20.5078 55.6055 17.2266C55.5273 15.1172 55.1562 13.1641 54.4922 11.3672C53.3203 8.55469 51.3281 6.5625 48.5156 5.39062C46.7188 4.72656 44.7656 4.35547 42.6562 4.27734C39.375 4.16016 35.1367 4.10156 29.9414 4.10156ZM29.9414 41.8359C33.2227 41.8359 36.0254 40.6738 38.3496 38.3496C40.6738 36.0254 41.8359 33.2227 41.8359 29.9414C41.8359 26.6602 40.6738 23.8574 38.3496 21.5332C36.0254 19.209 33.2227 18.0469 29.9414 18.0469C26.6602 18.0469 23.8574 19.209 21.5332 21.5332C19.209 23.8574 18.0469 26.6602 18.0469 29.9414C18.0469 33.2227 19.209 36.0254 21.5332 38.3496C23.8574 40.6738 26.6602 41.8359 29.9414 41.8359ZM29.9414 14.707C34.1602 14.707 37.7539 16.1914 40.7227 19.1602C43.6914 22.1289 45.1758 25.7227 45.1758 29.9414C45.1758 34.1602 43.6914 37.7539 40.7227 40.7227C37.7539 43.6914 34.1602 45.1758 29.9414 45.1758C25.7227 45.1758 22.1289 43.6914 19.1602 40.7227C16.1914 37.7539 14.707 34.1602 14.707 29.9414C14.707 25.7227 16.1914 22.1289 19.1602 19.1602C22.1289 16.1914 25.7227 14.707 29.9414 14.707ZM49.3945 14.1211C49.3945 15.0977 49.043 15.9277 48.3398 16.6113C47.6367 17.2949 46.7773 17.6367 45.7617 17.6367C44.7852 17.6367 43.9551 17.2949 43.2715 16.6113C42.5879 15.9277 42.2461 15.0977 42.2461 14.1211C42.2461 13.1055 42.5879 12.2461 43.2715 11.543C43.9551 10.8398 44.7852 10.4883 45.7617 10.4883C46.7383 10.4883 47.5879 10.8496 48.3105 11.5723C49.0332 12.2949 49.3945 13.1445 49.3945 14.1211Z" fill="#D1C7AD"/>
</svg>
