<svg width="60" height="60" viewBox="0 0 60 60" fill="none" xmlns="http://www.w3.org/2000/svg">
<path d="M28.0714 56.2476C28.5695 56.2476 29.0472 56.4452 29.3995 56.7971C29.7517 57.1489 29.9496 57.6262 29.9496 58.1238C29.9496 58.6214 29.7517 59.0986 29.3995 59.4505C29.0472 59.8023 28.5695 60 28.0714 60C27.5733 60 27.0956 59.8023 26.7434 59.4505C26.3911 59.0986 26.1933 58.6214 26.1933 58.1238C26.1933 57.6262 26.3911 57.1489 26.7434 56.7971C27.0956 56.4452 27.5733 56.2476 28.0714 56.2476ZM39.3403 56.2476C39.8384 56.2476 40.3162 56.4452 40.6684 56.7971C41.0206 57.1489 41.2185 57.6262 41.2185 58.1238C41.2185 58.6214 41.0206 59.0986 40.6684 59.4505C40.3162 59.8023 39.8384 60 39.3403 60C38.8422 60 38.3645 59.8023 38.0123 59.4505C37.66 59.0986 37.4622 58.6214 37.4622 58.1238C37.4622 57.6262 37.66 57.1489 38.0123 56.7971C38.3645 56.4452 38.8422 56.2476 39.3403 56.2476ZM22.437 52.4951C22.9351 52.4951 23.4128 52.6928 23.765 53.0446C24.1172 53.3965 24.3151 53.8737 24.3151 54.3713C24.3151 54.8689 24.1172 55.3462 23.765 55.698C23.4128 56.0499 22.9351 56.2476 22.437 56.2476C21.9388 56.2476 21.4611 56.0499 21.1089 55.698C20.7567 55.3462 20.5588 54.8689 20.5588 54.3713C20.5588 53.8737 20.7567 53.3965 21.1089 53.0446C21.4611 52.6928 21.9388 52.4951 22.437 52.4951ZM33.7059 52.4951C34.204 52.4951 34.6817 52.6928 35.0339 53.0446C35.3861 53.3965 35.584 53.8737 35.584 54.3713C35.584 54.8689 35.3861 55.3462 35.0339 55.698C34.6817 56.0499 34.204 56.2476 33.7059 56.2476C33.2078 56.2476 32.73 56.0499 32.3778 55.698C32.0256 55.3462 31.8277 54.8689 31.8277 54.3713C31.8277 53.8737 32.0256 53.3965 32.3778 53.0446C32.73 52.6928 33.2078 52.4951 33.7059 52.4951ZM44.9748 52.4951C45.4729 52.4951 45.9506 52.6928 46.3028 53.0446C46.6551 53.3965 46.8529 53.8737 46.8529 54.3713C46.8529 54.8689 46.6551 55.3462 46.3028 55.698C45.9506 56.0499 45.4729 56.2476 44.9748 56.2476C44.4767 56.2476 43.999 56.0499 43.6467 55.698C43.2945 55.3462 43.0966 54.8689 43.0966 54.3713C43.0966 53.8737 43.2945 53.3965 43.6467 53.0446C43.999 52.6928 44.4767 52.4951 44.9748 52.4951ZM33.7059 14.9706C42.9652 14.9706 48.2165 20.8732 48.979 28.0066H49.2119C55.1694 28.0066 60 32.6484 60 38.3746C60 44.1009 55.1694 48.7427 49.2119 48.7427H18.1998C12.2423 48.7427 7.41174 44.1009 7.41174 38.3746C7.41174 32.6484 12.2423 28.0066 18.1998 28.0066H18.4327C19.2028 20.8244 24.4466 14.9706 33.7059 14.9706ZM33.7059 18.7231C27.508 18.7231 22.1102 23.4887 22.1102 30.0742C22.1102 31.1174 21.1561 31.9354 20.063 31.9354H17.997C14.2257 31.9317 11.168 34.8586 11.168 38.4609C11.168 42.0633 14.2257 44.9902 17.997 44.9902H49.4147C53.1861 44.9902 56.2437 42.0633 56.2437 38.4609C56.2437 34.8586 53.1861 31.9317 49.4147 31.9317H47.3488C46.2594 31.9354 45.3016 31.1174 45.3016 30.0742C45.3016 23.4061 39.9038 18.7231 33.7059 18.7231ZM6.67175 25.1022C6.81647 25.5178 6.81036 25.971 6.65449 26.3826C6.49863 26.7941 6.20292 27.1379 5.81907 27.3537L5.50729 27.4888L2.49849 28.5245C2.05447 28.6797 1.5683 28.6628 1.13615 28.4771C0.703994 28.2915 0.357318 27.9506 0.164686 27.5218C-0.0279474 27.0931 -0.0525097 26.6078 0.0958563 26.1618C0.244222 25.7158 0.554712 25.3417 0.96592 25.1135L1.27394 24.9784L4.28649 23.9427C4.75723 23.7814 5.27283 23.8132 5.72006 24.0313C6.16729 24.2494 6.50957 24.636 6.67175 25.106V25.1022ZM25.8928 9.34195C27.1436 9.94984 28.2442 10.7416 29.1758 11.6685C27.6507 11.9799 26.2233 12.4565 24.9086 13.0756C23.2121 12.0555 21.2142 11.6542 19.2548 11.94C17.2955 12.2257 15.4958 13.1809 14.162 14.6429C12.8282 16.1049 12.0428 17.9835 11.9393 19.9589C11.8359 21.9342 12.4208 23.8844 13.5946 25.4775C12.355 25.8452 11.1906 26.3818 10.12 27.0535C8.66678 24.7933 7.99361 22.1202 8.20327 19.4421C8.41292 16.7641 9.49387 14.228 11.2812 12.221C13.0685 10.214 15.464 8.8462 18.1022 8.32638C20.7404 7.80655 23.4764 8.16321 25.8928 9.34195ZM3.34366 9.97986L3.65543 10.0999L6.51774 11.4921C6.9397 11.697 7.26961 12.0523 7.44253 12.488C7.61546 12.9237 7.61889 13.4082 7.45214 13.8463C7.28539 14.2844 6.96054 14.6443 6.54152 14.8552C6.1225 15.066 5.63965 15.1126 5.18801 14.9856L4.87248 14.8656L2.01017 13.4734C1.58821 13.2685 1.25831 12.9132 1.08538 12.4775C0.912448 12.0418 0.909022 11.5572 1.07577 11.1192C1.24252 10.6811 1.56737 10.3212 1.98639 10.1103C2.40541 9.89948 2.88826 9.85294 3.3399 9.97986H3.34366ZM29.912 1.0678C30.3075 1.26056 30.6227 1.58593 30.8025 1.98713C30.9824 2.38832 31.0155 2.83987 30.8962 3.26298L30.776 3.57819L29.3824 6.43755C29.1772 6.85908 28.8216 7.18865 28.3855 7.3614C27.9493 7.53415 27.4642 7.53757 27.0257 7.37099C26.5872 7.20441 26.2269 6.8799 26.0158 6.46131C25.8048 6.04272 25.7582 5.56037 25.8852 5.10919L26.0054 4.79023L27.4028 1.93086C27.6213 1.48432 28.0082 1.14265 28.4787 0.980833C28.9491 0.819021 29.4646 0.850298 29.912 1.0678ZM15.6756 0.947721L15.8146 1.25542L16.8513 4.26489C17.0037 4.70788 16.9847 5.19181 16.7981 5.62152C16.6114 6.05124 16.2706 6.39566 15.8427 6.58709C15.4147 6.77851 14.9305 6.80309 14.4853 6.65598C14.0401 6.50888 13.6661 6.20074 13.4369 5.79213L13.3016 5.48443L12.2649 2.47872C12.1149 2.03677 12.1351 1.55483 12.3217 1.12699C12.5082 0.699142 12.8477 0.356103 13.2738 0.164833C13.6999 -0.0264373 14.1821 -0.0522087 14.6262 0.0925493C15.0703 0.237307 15.4444 0.542204 15.6756 0.947721Z" fill="#D1C7AD"/>
</svg>
