<svg width="60" height="60" viewBox="0 0 60 60" fill="none" xmlns="http://www.w3.org/2000/svg">
<path d="M52.2321 27.0335H37.5V15.3092H32.6786C34.171 13.4924 34.9729 11.2813 34.9626 9.01137C34.9626 5.63574 33.2109 2.46394 30.3912 0.733992L29.195 0L27.9988 0.733992C25.1786 2.46419 23.4275 5.63586 23.4275 9.01137C23.4174 11.2813 24.2195 13.4924 25.7121 15.309H20.3571V27.0334H7.76786C5.70841 27.0355 3.73399 27.7825 2.27774 29.1104C0.821488 30.4384 0.00233952 32.2388 0 34.1168V56.0919C0.00127613 57.128 0.453215 58.1214 1.25667 58.8541C2.06012 59.5867 3.14946 59.9988 4.28571 60H55.7143C56.8505 59.9988 57.9399 59.5867 58.7433 58.8541C59.5468 58.1214 59.9987 57.128 60 56.0919V34.117C59.9977 32.239 59.1785 30.4385 57.7223 29.1105C56.266 27.7826 54.2916 27.0356 52.2321 27.0335ZM29.195 4.98626C30.1311 6.04682 30.6769 7.48574 30.6769 9.01149C30.6769 10.5372 30.1311 11.9763 29.195 13.0367C28.2589 11.9763 27.7132 10.5372 27.7132 9.01137C27.7132 7.4855 28.2589 6.04682 29.195 4.98626ZM24.6429 19.2173H33.2143V27.0335H24.6429V19.2173ZM4.28571 34.117C4.28678 33.2751 4.65399 32.468 5.30678 31.8727C5.95958 31.2774 6.84466 30.9426 7.76786 30.9416H52.2321C53.1553 30.9426 54.0404 31.2774 54.6932 31.8727C55.346 32.468 55.7132 33.2751 55.7143 34.117V37.9734L52.8214 39.1374C52.2557 39.3644 51.6443 39.4816 51.0262 39.4816C50.4081 39.4816 49.7967 39.3644 49.2309 39.1374L44.1964 37.1117L39.1607 39.1373C38.5949 39.3643 37.9835 39.4816 37.3654 39.4816C36.7473 39.4816 36.1359 39.3643 35.5701 39.1373L30.5357 37.1115L25.5 39.1372C24.9342 39.3642 24.3228 39.4815 23.7047 39.4815C23.0865 39.4815 22.4752 39.3642 21.9094 39.1372L16.875 37.1117L11.8402 39.1372C11.2744 39.3642 10.6631 39.4815 10.0449 39.4815C9.42677 39.4815 8.81538 39.3642 8.2496 39.1372L4.28571 37.5427V34.117ZM55.7143 56.0919H4.28571V41.8142L6.51938 42.7128C7.63036 43.1586 8.83087 43.3888 10.0446 43.3888C11.2584 43.3888 12.4589 43.1586 13.5699 42.7128L16.875 41.3831L20.1802 42.7128C21.2912 43.1586 22.4917 43.3888 23.7054 43.3888C24.9192 43.3888 26.1197 43.1586 27.2306 42.7128L30.5357 41.3831L33.8407 42.7128C34.9516 43.1586 36.1521 43.3888 37.3658 43.3888C38.5795 43.3888 39.78 43.1586 40.8909 42.7128L44.1964 41.3831L47.5015 42.713C48.6124 43.1587 49.8129 43.3889 51.0266 43.3889C52.2403 43.3889 53.4407 43.1587 54.5517 42.713L55.7159 42.2446L55.717 56.0919H55.7143Z" fill="#D1C7AD"/>
</svg>
