<svg width="60" height="60" viewBox="0 0 60 60" fill="none" xmlns="http://www.w3.org/2000/svg">
<path d="M58.173 7.79013C53.8874 1.61046 34.5128 0.29962 32.3254 0.131084L29.8701 0V38.0893C29.2962 37.6971 28.6839 37.3463 28.0397 37.0406C25.7978 36.0939 23.3506 35.5378 20.8456 35.4058C18.3406 35.2739 15.8297 35.5688 13.4642 36.2728C4.35723 38.7634 -1.55782 45.8794 0.361785 52.134C0.789608 53.4567 1.53758 54.6914 2.55908 55.761C3.58058 56.8307 4.85371 57.7123 6.29915 58.3511C8.77714 59.4603 11.5486 60.027 14.357 59.999C16.5934 59.9975 18.8155 59.7005 20.9417 59.1189C29.1335 56.9092 34.7137 51.0104 34.4682 45.3363V13.7451C39.4481 14.1628 44.354 15.0614 49.0884 16.4229C49.6419 16.6017 50.2574 16.5887 50.7995 16.3868C51.3416 16.1849 51.7658 15.8106 51.9789 15.3462C52.1921 14.8818 52.1766 14.3654 51.9359 13.9107C51.6952 13.4559 51.249 13.0999 50.6955 12.9211C45.4014 11.396 39.9085 10.4089 34.3342 9.98111V4.0636C41.7671 4.73775 52.191 6.64783 54.2445 9.68149C58.7087 16.0672 49.0437 23.464 48.9544 23.5389C48.5485 23.8767 48.3125 24.3322 48.2951 24.8116C48.2777 25.2911 48.4802 25.7578 48.8609 26.1157C49.2416 26.4735 49.7715 26.6951 50.3413 26.7348C50.911 26.7746 51.4772 26.6294 51.9231 26.3291C52.5258 25.9359 64.4675 16.8537 58.173 7.79013ZM19.4908 55.5609C17.6863 56.11 15.7688 56.3498 13.8518 56.2662C11.9348 56.1826 10.0573 55.7772 8.33036 55.074C7.41498 54.6833 6.60675 54.1368 5.95724 53.4694C5.30773 52.802 4.83122 52.0283 4.55812 51.1977C3.21886 46.8344 7.79465 41.7409 14.7811 39.8495C16.4391 39.3962 18.1711 39.1625 19.9149 39.1567C21.9712 39.1234 24.0047 39.5226 25.83 40.3177C26.7453 40.7084 27.5536 41.2549 28.2031 41.9223C28.8526 42.5897 29.3291 43.3634 29.6022 44.194C31.0754 48.576 26.4996 53.6695 19.4908 55.5609Z" fill="#D1C7AD"/>
</svg>
