<svg data-name="Слой 1" xmlns="http://www.w3.org/2000/svg" viewBox="0 0 285.62 247.89"><path d="M285.61 110.98q-8.7-15.81-17.42-31.6v-2.92h-3.25c-3.68 0-4.33-1-4.33-6.57 0-5.33 2.76-8.08 3.14-3.17.22 3.08 1.68 2.92 2.11-.25.22-1.74.6-2.49 1.3-2.49s1-.58 1-2.92v-2.91h-18.71l-.38-4.33c-.22-2.41-.71-4.66-1-5s-.87-2.58-1.19-5c-.54-4.25-.6-4.42-2.22-4.25-1.19.17-2.06-.41-2.93-1.83a3.65 3.65 0 00-2.92-2.08c-2.44 0-4.66-3.66-4.66-7.57a8.8 8.8 0 00-1.35-5.25 8.8 8.8 0 01-1.35-4.49 7.37 7.37 0 00-1-3.83c-1.68-2.33-1.84.5-.27 5.74 1.46 4.83 1.35 7.91-.27 7.91-.92 0-2.76-4.66-2.76-6.91a8.4 8.4 0 00-.82-2.75c-.75-1.49-.75-1.49-.43.25.16 1.34.06 1.92-.43 1.92-1.41-.08-2.38-2.08-3.36-6.83-1-4.91-2.43-7.32-4.44-7.32-1.68 0-2.43 1.58-2.43 5.16 0 2.08-.27 3.41-.82 3.66-1.13.67-.48 1.92.76 1.42.76-.34 1.08.16 1.36 2.24a10.39 10.39 0 01-.06 3.58c-.16.5-.05.59.33.25.48-.5.54 0 .27 1.75-.49 3.08-.33 3-3 1.83l-2.38-1 2-1.33c1.14-.75 2.06-1.66 2.06-2s-.33-.5-.65-.25c-3.58 2.25-4.77 2.42-5.85.92-.6-.83-1.08-1.08-1.08-.58a2.44 2.44 0 00.59 1.49c.44.42.22 1.09-.65 2.17l-1.3 1.66 1.57-.58c1.47-.5 1.52-.33 1.25 1.83a15.88 15.88 0 00.49 5.16c1.3 4.75 0 9.74-2.17 8.74a7 7 0 01-2.22-1.91 9.66 9.66 0 00-3.41-2.58c-3-1.42-3.63-2.75-3.63-7.33 0-4.74-.86-5.24-2.38-1.33-1.14 2.83-1.14 3.16-.27 4.58s.81 1.75.16 3a42.14 42.14 0 00-1.73 4.58c-.7 2.42-1.14 3-1.84 2.58-.92-.5-.92-.41-.05 1.08a3.19 3.19 0 01.32 3.08 15 15 0 00-.32 4.42 6.91 6.91 0 01-.11 2.82c-.65 0-3.79-8.15-3.79-9.82a3 3 0 00-.81-2.16c-.44-.25-.76-.17-.76.17.21 2.08-.44 1.41-3.85-3.5-2.11-3-4.16-5.49-4.6-5.49s-2.22-1.58-4.06-3.58c-2.87-3-3.52-4.16-4.33-7.83a74.26 74.26 0 01-1.35-8.73c-.54-6.25-1.09-7.83-3.58-11.57-2.27-3.42-2.92-3.75-4.27-2.42-.65.67-.65.92.11 2.25s.81 1.66.1 3.08c-1 2.25-1 4.16.22 5.74s3.41 1.83 4.28.5c1.08-1.66 1.62 1.67 2 11.9.33 9.33.27 9.66-.76 9.24-.65-.25-2.05.59-3.57 2.17-3.14 3.16-3.95 3.24-5.79.25-1.36-2.17-1.47-2.92-1.47-9.08 0-4.24-.21-7.07-.64-7.4s-.55.66-.28 4a20.57 20.57 0 01-.21 5.74c-.38.92-.49.92-.49-.33 0-.91-.32-1.41-.87-1.25s-1.29-.91-2.05-3.08c-3.36-9.82-6.28-13.48-6.28-7.9a12 12 0 001.95 5.82c1.08 1.75 1.78 3.67 1.57 4.16s-.06.84.21.84.6.58.6 1.25a9.89 9.89 0 002.74 6.65 30.06 30.06 0 013.58 4.25c1.62 2.33 1.78 2.83 1 3.33-.49.33-1.3 0-1.84-.75-1.46-1.92-3.36-3.25-3.36-2.33 0 .5 1.36 2.16 3 3.83 2 1.91 3 3.41 3 4.57 0 .92-.22 1.67-.54 1.67s-.54-.42-.54-.92-.33-.75-.71-.5c-.92.5-2.22-.66-2.33-2.08-.16-3.16-.21-3.16-2.38-2.66-1.95.5-2.16.33-2.76-1.66-.38-1.17-1-2.17-1.41-2.17s-.7-.58-.7-1.25-.22-1.25-.54-1.25c-.76 0-.65 2.92.21 6.25.87 3.16 1.74 4 1.25 1.24-.16-.91-.05-1.66.22-1.66s.48.58.48 1.25c0 .83.44 1.25 1.25 1.16a13.46 13.46 0 012.54 0c1 .09 1.14.34.6.84s-.22 1.16 1.46 2.49c1.25 1 2.27 2.17 2.27 2.58 0 1.09-2.54 1.09-3 0-.38-.91-4.12-.41-5.63.75s-2.55 4.25-1.57 4.25a4.05 4.05 0 002-1.33c1.19-1.34 1.3-1.25 2.65.83l1.46 2.16H136.8l-2.6-3.16c-1.41-1.67-3.95-5-5.63-7.24s-3.95-5.33-5.14-6.83l-2.12-2.58 2.82-2.41c1.57-1.25 4.6-3.91 6.71-5.83a64.29 64.29 0 016-4.91c2-1.41 2.43-2.33 1.51-3.16-.48-.5-6.6 4.33-12.61 10-2 1.83-3.84 2.91-5.25 3-1.19.09-2.28.59-2.44 1.17-.32 1.25-4.38 4.66-4.76 4a13.34 13.34 0 01.11-3.91 17.1 17.1 0 00.21-4.08c-.16-.33.38-1.24 1.14-2s1.24-1.58 1.14-1.83-.6 0-1 .49c-.54.67-.7.09-.76-2.66-.05-4.83-2.54-11.32-4.33-11.32-1.41 0-1.57.58-.81 2.42.38.91.11 1.83-.87 3.16a4.92 4.92 0 00-1 4.24c.43 3.08 1.84 4.5 3.63 3.92 1.4-.5 1.46-.42 1.3 2.24a65.3 65.3 0 01-1 7.33c-.44 2.49-1.09 6.16-1.41 8a17.7 17.7 0 01-1.84 5.41 15.9 15.9 0 00-1.63 3.33c-.32 1.41-2.86 1.91-3.41.66-.16-.41-.54-.58-.81-.33s-.49.08-.49-.33a.91.91 0 01.93-.92c.48 0 .75-.25.54-.5-.27-.5 1-3.08 3.14-6.41 1.08-1.66 1.08-1.66-.11-1.16l-1.19.41 1.13-2.41c1.2-2.41 1.95-10.4.92-9.49a3.17 3.17 0 00-.48 1.75 16.56 16.56 0 01-1.95 5c-1.95 3.58-3.63 4.66-4.17 2.58-.22-.58-.43-.25-.65.84-.54 2.66-1.19 2.33-1.68-.75a19.77 19.77 0 00-1-4.42c-.75-1.74-1.35-4.91-2.49-13.15-.81-5.65-1.84-7.57-3-5.16-1 2.09-1 3.25.37 7.25a15.1 15.1 0 01.76 7.24c-.32 3.49-.16 4.32 1.52 8 1 2.33 1.95 4.82 2.16 5.57.65 2.67-.81 2.5-2.32-.25-1.85-3.33-2.28-1.41-.49 2.08a7.14 7.14 0 01.92 2.25c-.11 0-.76.17-1.46.25a2 2 0 00-1.57 1.25c-.27 1.16-3 3.41-4.17 3.41-.65 0-.81-.5-.54-1.66s.16-1.5-.49-1.17a3 3 0 00-1.08 1.67 1.68 1.68 0 01-1.63 1.16c-1.78 0-2.38-2.83-1.08-5.08.87-1.49.87-1.74.05-3-1-1.5-.81-1.83-2.16 4.33-.65 2.91-1 3.33-2.55 3.58a2.6 2.6 0 01-2.27-.5c-.6-.92.43-7.66 1.19-7.66.33 0 .54-.75.54-1.67 0-2.33-1.51-2.08-2.27.42-.92 3.08-3.2 2.5-3.47-.83-.21-3.16-.32-3.33-.7-1.75-.32 1.42-.49 1.33-1.35-.75-1-2.25-1-2.41.16-6.16a35.6 35.6 0 001.24-6.32c.11-1.83.44-2.5 1.25-2.5s1.14-.58 1.19-1.66c.05-.92.22-3.75.43-6.41.22-2.92.11-4.91-.27-5.25s-.54.25-.54 1.25-.22 1.5-.54 1.25-.54-2.58-.54-5.08c0-2.83-.22-4.41-.54-4.08a4.94 4.94 0 00-.54 2.58 42.7 42.7 0 01-1.09 6.75 45 45 0 00-1.08 7.49c0 2.16-.27 3-1.19 3.49-1.52.92-3.25-.58-3.68-3-.49-3.08-2.49-.92-3.52 3.82-.49 2.34-1.08 4.25-1.35 4.25-.71 0-1.68 5.41-1.3 7.16.86 3.58 2 4.33 5.95 4 2.06-.16 4.06 0 4.49.42.93.91.28 4.24-.81 4.24s-1 .5.71 3.83l1.4 2.91-8.06-.08c-4.44-.08-12.89-.08-18.73 0H31.61v2.91c0 2.58.16 2.92 1.4 2.92 2.49 0 3.47 1.41 3.47 4.91 0 2.66-.22 3.33-1.19 3.74a4.6 4.6 0 01-3-.5c-2.12-1.16-3 .09-2.55 3.33.22 1.5.06 2.08-.81 2.42a1.92 1.92 0 00-1.08 1.58c0 .66-.38 1.16-.82 1.16s-1.19.92-1.62 2c-.81 1.83-.81 2.25.22 5.16a16.91 16.91 0 001.78 3.83c.54.58.54.92.06 1.17a1.41 1.41 0 00-.38 1.49 2.81 2.81 0 01-.6 2.17c-.65.83-1.4.83-4.06 0-3.14-1-3.84-1.83-2.7-2.92 1.78-1.74-.82-5.32-2.71-3.74-2.87 2.41-.16 6.74 5.14 8.32 2.71.75 3.52 1.33 3.52 2.5a6.35 6.35 0 002.71 4.49c.54.34.43.42-.27.25s-1.3.5-1.63 1.42a3.89 3.89 0 01-1.35 2c-.65.33-.7.16-.11-.75 1-1.67.76-3.25-.49-3.25-1 0-1.13.33-.86 2.41s.11 2.5-1 2.92-1.35 1.08-1.35 3.08a17.8 17.8 0 01-.87 5c-.75 2.41-.75 2.66.17 3.66 1.35 1.58.27 4.25-1.63 3.91s-2.27 1.25-.54 2.67c2.27 1.75 3.63 4.33 3.19 6.07-.37 1.42-.43 1.42-.92 0a2.27 2.27 0 00-2-1.41c-2 0-4.66-4.16-4.17-6.49.49-2.17-.71-3.33-1.57-1.58a2.93 2.93 0 01-2.87 1.41c-2.76 0-3.41 1.42-1.63 3.66a9.82 9.82 0 011.68 3.25 5.94 5.94 0 002.55 2.83c2.54 1.58 2.65 2.16.81 3.41-1.3.92-1.9 3.5-.81 3.5s.59 2.08-.6 3.16a2.68 2.68 0 00-.76 2.66 2.19 2.19 0 01-1.08 2.67c-1.35.91-1.41 1.24-1.08 4.91.43 4.57-.16 5.57-1.95 3.33-1.25-1.5-1.25-1.67-.33-3.17.49-.91.76-1.83.6-2.08-.43-.75-4.06 2.67-4.38 4.08a5.71 5.71 0 01-1.79 2.33c-1.19.92-1.41 1.58-1.25 3.25a7.48 7.48 0 001.09 3.08c.65.83 1 .66 1.95-1.17l1.19-2.25 1.78 1.75c2.11 2.08 2.11 2.66.38 5.58a5.42 5.42 0 00-1 3.49 18.94 18.94 0 01.44 3.75c.05 3.33 1.95 3.83 3.46.91 1.19-2.41 2.71-2.83 3.2-.83a4.06 4.06 0 001.62 2.08c1.57.92 1.35 2.83-.33 2.92-2 .16-2.49 1.58-1.46 4.07a5.26 5.26 0 01.54 3 5.83 5.83 0 001.68 5.58c1.63 1.16 1.79 2.66.33 2.66s-1.95 1.42-1.14 2.91 1.35 1.58 2.54-.25c1.57-2.41 3.85-4.32 5.15-4.32a3.48 3.48 0 002.06-.84c.64-.66.86-.25 1.08 1.92.27 2.49.43 2.66 2.33 2.58 2.16-.09 2.87-.75 3.19-2.75.11-.83-.32-1.25-1.19-1.25-1.25-.08-1.35-.33-1.35-4.41a20.29 20.29 0 00-.38-4.91c-.65-.91.59-2.83 1.51-2.25a2.55 2.55 0 01.76 2c0 .83.33 1.58.7 1.58s1.3.75 2 1.67c1.51 2 2.16 2.08 2.16.33s1.84-1.17 2.06.75c.33 2.33-.92 3.91-2.92 3.91-1.63 0-1.84.25-1.84 2.25a8.08 8.08 0 01-4.06 7.24 4.54 4.54 0 00-2.39 2.66 7.19 7.19 0 01-.92 2.67c-1.08 1.58-.92 2.66.33 2.66 1.57 0 1.35 1.41-.49 2.83-2 1.66-2.76 5-2.22 9.74.81 6.57 4.77 9.57 6.93 5.32a6.82 6.82 0 011.35-2.08c.65 0 3.09 4.25 3.09 5.33 0 3.16 4.66 5.83 6 3.41.7-1.33.59-1.75-1.2-4.08-2.43-3.24-2.22-4.66.71-4.07 2.16.49 2.22.41 2-1.92s-.32-2.41-2.43-2.41c-3.09 0-3.36-.83-.76-2.83 1.73-1.42 2.43-1.58 3.62-.92a3 3 0 002.6.25 3.62 3.62 0 012.28-.33c1.68.25 4.54-4 4.54-6.83a12.74 12.74 0 01.87-4.32c.76-1.75 1.25-2 3.57-1.92 2.6.09 2.66.09 2.39 2.25s-.33 2.08 1.13-.58c.87-1.5 1.95-2.67 2.49-2.67a3.92 3.92 0 002.06-.91c.87-.67 1.41-.5 2.49.66.76.84 1.95 2.08 2.6 2.75s1.79 1.91 2.54 2.75c2.55 2.74 6.72-1.42 4.34-4.41-1.41-1.67-2.28-4.42-1.85-5.58.6-1.33 2.28-1.08 5 .58 2.11 1.33 4.06 1.75 8.07 1.75a30.8 30.8 0 013.41.42c2.27.41 2.54.33 2.54-1.17 0-2.41 1.68-2.66 16-2.66 12.23 0 12.61.08 12.94 1.74.27 1.25.75 1.67 1.78 1.5a4.71 4.71 0 013.14 1.17c1.57 1.25 1.79 1.25 2.44.08a1.84 1.84 0 011.78-1c.93.17 1.14.75 1 3-.05 1.91.11 2.66.7 2.66s.82-.5.82-1.08a10.35 10.35 0 011.51-3.66c1.08-1.83 1.73-2.33 2.49-1.92 1 .5 1 .59.11 1.09-.7.41-.87 1.16-.65 2.58.43 2.58-2.33 7.15-4.28 7.15-1.57 0-1.73 1.17-.48 3.08a5.84 5.84 0 01.59 3.42c-.54 4.49 1 5.82 2.55 2.24.48-1.16 1.24-2.08 1.73-2.08s1.19-1.41 1.68-3.33c.92-3.58 2.05-4.32 2.6-1.66.32 1.66 1.89 2.33 1.89.83 0-1.25 1.41-1 2.17.42a2.47 2.47 0 001.89 1.25c.76 0 1.41.74 1.79 2.08.65 2.08 1.68 2.49 3.62 1.33 2.17-1.33 3.31 1.08 1.57 3.33-.65.83-1.08.83-1.89.08-1.3-1.33-1.57-1.25-1.57.25 0 .67.22 1.25.49 1.25.81 0 1 3.24.27 4.24a3.11 3.11 0 00-.71 1.92c0 .5.38.08.82-.84.7-1.49 1-1.66 2.05-.91a6.64 6.64 0 011.84 3.25l.55 2.33 1.78-1.5c2.28-1.92 2.55-3.25.81-4.33-.75-.42-1.4-1-1.4-1.33 0-.75 2.22-6.16 2.49-6.16a14.13 14.13 0 012.11 2.16c1.46 1.67 2.06 1.92 2.87 1.25.59-.5 1.19-.66 1.35-.41.54.83 2.55-.59 2.55-1.84a10.06 10.06 0 00-1.74-3.74l-1.78-2.5 1.24-1.58a7.33 7.33 0 001.41-3.08c.22-2.25 1.68-1.75 1.89.58.22 2.75 1.14 3.5 2.49 2.17 1.57-1.58 5.31-2.17 6-.92A5.22 5.22 0 01178 219c-.27 2.33.92 4.25 2.22 3.5.54-.34.87-1.5.87-2.92 0-3.08.49-3 2.38 0a6.67 6.67 0 011.3 4.58 6.4 6.4 0 001.25 4.66 15.49 15.49 0 011.89 4.75c.54 4 .7 4.41 1.57 4.41 1.19 0 1-1.83-.65-7.08-1.14-3.58-1.35-4.91-.92-6.07 1.25-3 2.06-1.75 4.76 7.32.76 2.5.87 2.58.6.58-.33-2.58-.27-2.58 1.57-1.33.92.67 1.62 2.33 2.33 5.66s1.46 5.16 2.7 6.33a7.31 7.31 0 011.95 3.08c.44 2.41 1.47 1.66 1.47-.92a6.11 6.11 0 01.59-3.08c.7-.66.43-3-1-10.15-.59-2.83-.92-5-.7-4.75s.32-.58.16-1.66c-.22-1.75 0-2.08 1-2.08 1.84 0 5.14 1.91 6.44 3.74.6.84 1.08 1.09 1.08.67a4.14 4.14 0 00-.86-2 6.24 6.24 0 01-.71-3.58 29.39 29.39 0 00-.54-5.91 25.38 25.38 0 01-.48-5.82c.1-2.08.43-2.5 1.89-2.75a2.57 2.57 0 012.71 1.33 6 6 0 003.25 2.25c2.87.67 3.84 2.41 4.06 7s1.3 5.33 2.32 1.42c.65-2.25.71-3.33.22-4.5-.87-2.16 1.84-11.4 3.14-10.65.87.5.87.5 0-1-1.14-1.91-.7-2.66 1.52-2.66 1.3 0 1.89.5 2.32 2.08.33 1.16.87 2.08 1.2 2.08s.43-.42.27-.83c-1-2.42 1.35-.25 4.44 4.16 1.94 2.74 4 5 4.49 5s2.38 1.33 4.22 3c3 2.74 3.36 3.41 4.33 7.65.65 2.67 1.41 6.83 1.74 9.33.75 5.24 1.57 7.49 4 10.9 2.38 3.25 5.84 3.25 3.9-.08-.71-1.25-.71-1.67 0-4.08.87-2.67.87-2.83-.54-4.91s-1.57-2.08-3.14-1.17c-1.19.67-1.9.75-2.33.09-.54-.84-1.46-13.15-1.41-19.65 0-5.41 1-10.23 1.95-9.73.49.33.81 0 .81-.84 0-2 1.14-1.58 2.93 1.17.92 1.33 3.57 5.24 6 8.49a51.24 51.24 0 014.88 8.15c1.24 4.08 4.33 10 5.25 10 1.08 0 1.78-2.41 1.24-4.41a11 11 0 00-2.11-3.41c-1.3-1.58-2.06-3.41-2.65-6.49-.71-3.75-1.19-4.75-3.3-6.75-2.82-2.74-5.69-6.49-5.69-7.4 0-1.25 1.46-.67 3.25 1.41 2 2.17 3.25 2.67 3.25 1.17 0-.42-.81-1.33-1.84-2a6.93 6.93 0 01-2.17-2c-.49-1.16 4.44-.58 5.2.59a2 2 0 001.35 1c.43 0 .87.59 1 1.25.43 1.67 1.3 1.58 1.3 0a4.72 4.72 0 00-1.57-2.74c-1.25-1.09-1.62-2.08-1.79-4.5a11.16 11.16 0 01.22-3.83c.54-.83-1-5.66-2-6.24a3.85 3.85 0 01-.7-2.58c0-1.75.21-2.16 1.24-2.16s1.3-.5 1.3-1.67a2.86 2.86 0 01.81-2.16 2.91 2.91 0 00.82-2.08c0-.84-.38-1.58-.82-1.58s-.91 1.58-.81 1.66 1.43-3.59 4.4-8 4.38-4.67 4.82-7.24c.57-3.41-1.57-4.66-2-8.81-.67-7.14 5.08-9.79 4.81-15.8-.36-7.93-10.75-12.22-10-15.1.66-2.44 8 .85 10.44-4 1-2.1.76-4.95 2.58-6.45a3.25 3.25 0 012.34-.88zm-219-46.94c1.5.68 1.9 1.8 1.9 5.13 0 6.75-.2 6.83-9 6.83s-9-.08-9-6.83c0-3.08.5-4.45 1.8-5 2.14-1.24 11.75-1.24 14.25-.13zm27 0c1.5.68 1.9 1.8 1.9 5.13 0 6.75-.2 6.83-9 6.83s-9-.08-9-6.83c0-3.08.5-4.45 1.8-5 2.14-1.24 11.75-1.24 14.25-.13zm27.3.26c1.4.85 1.7 2.13 1.4 6.15l-.3 5.13-7.3.25c-4.6.17-7.9-.17-8.8-.77-2.1-1.53-1.9-9.82.4-10.93 2.35-1.29 12.45-1.11 14.55.13zm27 0c1.4.85 1.7 2.13 1.4 6.15l-.3 5.13-7.3.25c-4.6.17-7.9-.17-8.8-.77-2.1-1.53-1.9-9.82.4-10.93 2.35-1.29 12.45-1.11 14.55.13zm27 0c1.4.85 1.7 2.13 1.4 6.15l-.3 5.13-7.3.25c-4.6.17-7.9-.17-8.8-.77-2.1-1.53-1.9-9.82.4-10.93 2.35-1.29 12.45-1.11 14.55.13zm27 0c1.4.85 1.7 2.13 1.4 6.15l-.3 5.13-7.3.25c-4.6.17-7.9-.17-8.8-.77-2.1-1.53-1.9-9.82.4-10.93 2.35-1.29 12.45-1.11 14.55.13zm27 0c1.4.85 1.7 2.13 1.4 6.15l-.3 5.13-7.3.25c-4.6.17-7.9-.17-8.8-.77-2-1.36-1.8-8.8.2-10.51s12.15-1.88 14.75-.29zM67.31 186.4c.7.6 1.2 3 1.2 5.39s-.5 4.78-1.2 5.38-4 1-7.8 1-7.1-.43-7.8-1-1.2-3-1.2-5.38.5-4.79 1.2-5.39 4-1 7.8-1 7.05.41 7.75 1zm27 0c.7.6 1.2 3 1.2 5.39s-.5 4.78-1.2 5.38-4 1-7.8 1-7.1-.43-7.8-1c-1.6-1.37-1.6-9.4 0-10.77.7-.59 4-1 7.8-1s7.05.41 7.75 1zm27 0c.7.6 1.2 3 1.2 5.39s-.5 4.78-1.2 5.38-4 1-7.8 1-7.1-.43-7.8-1c-1.6-1.37-1.6-9.4 0-10.77.7-.59 4-1 7.8-1s7.05.41 7.75 1zm27 0c.7.6 1.2 3 1.2 5.39s-.5 4.78-1.2 5.38-4 1-7.8 1-7.1-.43-7.8-1c-1.6-1.37-1.6-9.4 0-10.77.7-.59 4-1 7.8-1s7.05.41 7.75 1zm27 0c.7.6 1.2 3 1.2 5.39s-.5 4.78-1.2 5.38-4 1-7.8 1-7.1-.43-7.8-1c-1.6-1.37-1.6-9.4 0-10.77.7-.59 4-1 7.8-1s7.05.41 7.75 1zm27 0c.7.6 1.2 3 1.2 5.39s-.5 4.78-1.2 5.38-4 1-7.8 1-7.1-.43-7.8-1c-1.6-1.37-1.6-9.4 0-10.77.7-.59 4-1 7.8-1s7.05.41 7.75 1zm27 0c.7.6 1.2 3 1.2 5.39s-.5 4.78-1.2 5.38-4 1-7.8 1-7.1-.43-7.8-1c-1.6-1.37-1.6-9.4 0-10.77.7-.59 4-1 7.8-1s7.05.41 7.75 1zm0-15.62H65.45v-83.9H229.3z" fill="#fffefe"/></svg>