<svg width="28" height="28" viewBox="0 0 28 28" fill="none" xmlns="http://www.w3.org/2000/svg">
<path fill-rule="evenodd" clip-rule="evenodd" d="M27.4599 14.0777C27.3948 6.51912 21.2212 0.444563 13.671 0.50982C6.12071 0.575076 0.0528609 6.75543 0.118045 14.314C0.18323 21.8726 6.35677 27.9472 13.907 27.8819C21.4573 27.8167 27.5251 21.6363 27.4599 14.0777ZM21.0101 11.1242C21.0523 11.9025 21.0631 12.1512 21.0802 14.1335L21.0801 14.1313C21.0972 16.1142 21.0907 16.3622 21.062 17.1411C21.0332 17.9185 20.9149 18.4502 20.7386 18.9171C20.5567 19.3993 20.311 19.8074 19.909 20.217C19.5072 20.6265 19.1025 20.8794 18.6246 21.0706C18.1625 21.2541 17.6338 21.3818 16.8579 21.425C16.0804 21.4667 15.832 21.478 13.8518 21.4951C11.8716 21.5122 11.6236 21.5052 10.8456 21.477C10.0694 21.4472 9.53833 21.3286 9.07303 21.1532C8.59201 20.9703 8.18307 20.7244 7.77429 20.3219C7.36522 19.9198 7.11198 19.5153 6.92161 19.037C6.7373 18.5741 6.60983 18.0442 6.56759 17.2674C6.52548 16.4891 6.51468 16.2412 6.49758 14.2587C6.48049 12.2764 6.48701 12.0277 6.51568 11.2488C6.54453 10.4716 6.66284 9.93998 6.83914 9.47401C7.02124 8.99262 7.26745 8.58322 7.66953 8.17415C8.07131 7.76477 8.47595 7.51187 8.95389 7.32113C9.41594 7.13677 9.94471 7.00917 10.7206 6.96672C11.4981 6.92472 11.7457 6.91376 13.7259 6.89665C15.7061 6.87953 15.9549 6.88651 16.7329 6.91461C17.5091 6.94288 18.0402 7.06147 18.5055 7.23843C18.9865 7.42133 19.3954 7.66721 19.8042 8.06973C20.2131 8.47194 20.4658 8.87703 20.6561 9.3555C20.8404 9.81806 20.9679 10.3474 21.0101 11.1242Z" fill="#D1C7AD"/>
<path fill-rule="evenodd" clip-rule="evenodd" d="M19.7606 13.4901C19.7619 13.6172 19.763 13.754 19.7642 13.9016L19.7662 14.1449C19.783 16.0938 19.778 16.3249 19.7497 17.0948C19.7234 17.8068 19.6079 18.194 19.5103 18.4522C19.3811 18.794 19.2252 19.0382 18.9722 19.2957C18.7192 19.5534 18.4776 19.7137 18.1384 19.8492C17.8826 19.9513 17.4978 20.0737 16.7872 20.1123C16.0188 20.1539 15.788 20.1635 13.8422 20.1803C11.8963 20.1971 11.6653 20.1915 10.8964 20.1632C10.1852 20.1368 9.79838 20.0212 9.5408 19.9235C9.1994 19.7942 8.95575 19.6378 8.69851 19.3845C8.44111 19.1313 8.28104 18.8901 8.14594 18.5504C8.04347 18.2943 7.92166 17.9088 7.88301 17.1974C7.84144 16.4282 7.83185 16.1971 7.81504 14.2482C7.79824 12.2991 7.80384 12.0681 7.83214 11.2983C7.85881 10.5863 7.97427 10.1991 8.07185 9.94074C8.20107 9.59896 8.35694 9.35429 8.60994 9.09661C8.86293 8.83893 9.104 8.67868 9.44327 8.54313C9.69912 8.44101 10.0839 8.3186 10.7945 8.28007C11.5629 8.23845 11.7937 8.22946 13.7408 8.21263C15.6878 8.1958 15.9176 8.20081 16.6865 8.22914C17.3977 8.25554 17.7845 8.37112 18.0424 8.46881C18.3838 8.59817 18.6282 8.75453 18.8856 9.0078C19.143 9.26107 19.3031 9.50301 19.4385 9.8425C19.541 10.0989 19.6628 10.4843 19.7016 11.1957C19.7378 11.8688 19.7491 12.1297 19.7624 13.4901L19.7606 13.4901ZM18.5892 18.0517C18.585 17.5681 18.1902 17.1791 17.707 17.1833C17.2239 17.1875 16.8354 17.5832 16.8396 18.0668C16.8437 18.5504 17.239 18.9393 17.7221 18.9352C18.2051 18.931 18.5936 18.5353 18.5895 18.0517L18.5892 18.0517ZM13.7566 10.4481C15.8244 10.4302 17.5153 12.094 17.5333 14.164C17.5511 16.2342 15.8891 17.9266 13.8212 17.9445C11.7534 17.9623 10.0631 16.299 10.0453 14.2289C10.0274 12.1588 11.6887 10.4659 13.7566 10.4481Z" fill="#D1C7AD"/>
<path d="M16.2193 14.1756C16.2309 15.5192 15.1522 16.6181 13.8098 16.6297C12.4676 16.6413 11.37 15.5613 11.3584 14.2176C11.3468 12.8737 12.4257 11.7751 13.7679 11.7635C15.1102 11.7519 16.2077 12.8317 16.2193 14.1756Z" fill="#D1C7AD"/>
</svg>
