<svg width="60" height="60" viewBox="0 0 60 60" fill="none" xmlns="http://www.w3.org/2000/svg">
<path d="M24.0871 5.0625C23.3374 5.0625 22.6663 4.8125 22.0738 4.3125C21.4813 3.8125 21.185 3.21875 21.185 2.53125C21.185 1.84375 21.4813 1.25 22.0738 0.75C22.6663 0.25 23.3374 0 24.0871 0C24.8609 0 25.5623 0.25 26.1911 0.75C26.8198 1.25 27.1342 1.84375 27.1342 2.53125C27.1342 3.21875 26.8198 3.8125 26.1911 4.3125C25.5623 4.8125 24.8609 5.0625 24.0871 5.0625ZM34.7521 5.0625C33.9782 5.0625 33.289 4.8125 32.6844 4.3125C32.0798 3.8125 31.7775 3.21875 31.7775 2.53125C31.7775 1.84375 32.0798 1.25 32.6844 0.75C33.289 0.25 33.9782 0 34.7521 0C35.526 0 36.2152 0.25 36.8198 0.75C37.4244 1.25 37.7267 1.84375 37.7267 2.53125C37.7267 3.21875 37.4244 3.8125 36.8198 4.3125C36.2152 4.8125 35.526 5.0625 34.7521 5.0625ZM57.497 55.6875H54.994V45.5C54.994 46.3958 54.5103 47.1615 53.5429 47.7969C52.5756 48.4323 51.3906 48.75 49.9879 48.75C48.6094 48.75 47.4365 48.4323 46.4692 47.7969C45.5018 47.1615 45.0181 46.3958 45.0181 45.5C45.0181 46.3958 44.5284 47.1615 43.549 47.7969C42.5695 48.4323 41.3906 48.75 40.0121 48.75C38.6336 48.75 37.4547 48.4323 36.4752 47.7969C35.4958 47.1615 35.006 46.3958 35.006 45.5C35.006 46.3958 34.5163 47.1615 33.5369 47.7969C32.5574 48.4323 31.3785 48.75 30 48.75C28.6215 48.75 27.4426 48.4323 26.4631 47.7969C25.4837 47.1615 24.994 46.3958 24.994 45.5C24.994 46.3958 24.5042 47.1615 23.5248 47.7969C22.5453 48.4323 21.3664 48.75 19.9879 48.75C18.6094 48.75 17.4365 48.4323 16.4692 47.7969C15.5018 47.1615 15.0181 46.3958 15.0181 45.5C15.0181 46.3958 14.5284 47.1615 13.549 47.7969C12.5695 48.4323 11.3906 48.75 10.0121 48.75C8.63362 48.75 7.45466 48.4323 6.47521 47.7969C5.49577 47.1615 5.00605 46.3958 5.00605 45.5V55.6875H2.50302C1.80169 55.6875 1.20919 55.8958 0.725514 56.3125C0.241838 56.7292 0 57.2396 0 57.8438C0 58.4479 0.241838 58.9583 0.725514 59.375C1.20919 59.7917 1.80169 60 2.50302 60H57.497C58.1983 60 58.7908 59.7917 59.2745 59.375C59.7582 58.9583 60 58.4479 60 57.8438C60 57.2396 59.7582 56.7292 59.2745 56.3125C58.7908 55.8958 58.1983 55.6875 57.497 55.6875ZM45.0181 41.4688C45.0181 42.3646 45.5018 43.1302 46.4692 43.7656C47.4365 44.401 48.6094 44.7188 49.9879 44.7188C51.3906 44.7188 52.5756 44.4062 53.5429 43.7812C54.5103 43.1562 54.994 42.3854 54.994 41.4688V39.5625C54.994 38.6667 54.6554 37.901 53.9782 37.2656C53.3011 36.6302 52.4667 36.3125 51.4752 36.3125H8.59734C7.6058 36.3125 6.75937 36.6302 6.05804 37.2656C5.35671 37.901 5.00605 38.6667 5.00605 39.5625V41.4688C5.00605 42.3646 5.49577 43.1302 6.47521 43.7656C7.45466 44.401 8.63362 44.7188 10.0121 44.7188C11.3906 44.7188 12.5695 44.401 13.549 43.7656C14.5284 43.1302 15.0181 42.3646 15.0181 41.4688C15.0181 42.3646 15.5018 43.1302 16.4692 43.7656C17.4365 44.401 18.6094 44.7188 19.9879 44.7188C21.3664 44.7188 22.5453 44.401 23.5248 43.7656C24.5042 43.1302 24.994 42.3646 24.994 41.4688C24.994 42.3646 25.4837 43.1302 26.4631 43.7656C27.4426 44.401 28.6215 44.7188 30 44.7188C31.3785 44.7188 32.5574 44.401 33.5369 43.7656C34.5163 43.1302 35.006 42.3646 35.006 41.4688C35.006 42.3646 35.4958 43.1302 36.4752 43.7656C37.4547 44.401 38.6336 44.7188 40.0121 44.7188C41.3906 44.7188 42.5695 44.401 43.549 43.7656C44.5284 43.1302 45.0181 42.3646 45.0181 41.4688ZM45.0181 34.1562V23.6562C45.0181 24.5521 44.5284 25.3229 43.549 25.9688C42.5695 26.6146 41.3906 26.9375 40.0121 26.9375C38.6336 26.9375 37.4547 26.6146 36.4752 25.9688C35.4958 25.3229 35.006 24.5521 35.006 23.6562C35.006 24.5521 34.5163 25.3229 33.5369 25.9688C32.5574 26.6146 31.3785 26.9375 30 26.9375C28.6215 26.9375 27.4426 26.6146 26.4631 25.9688C25.4837 25.3229 24.994 24.5521 24.994 23.6562C24.994 24.5521 24.5042 25.3229 23.5248 25.9688C22.5453 26.6146 21.3664 26.9375 19.9879 26.9375C18.6094 26.9375 17.4365 26.6198 16.4692 25.9844C15.5018 25.349 15.0181 24.5729 15.0181 23.6562V34.1562H45.0181ZM30.4716 14.7812H38.9601L36.1306 9.71875V7.90625C36.1306 7.55208 35.9855 7.375 35.6953 7.375H33.7001C33.4341 7.375 33.3011 7.55208 33.3011 7.90625V9.71875L30.4716 14.7812ZM40.9915 14.7812H42.2249C43.0472 14.7812 43.7183 15.0885 44.2382 15.7031C44.7582 16.3177 45.0181 17.0833 45.0181 18V19.625C45.0181 20.5208 44.5284 21.2917 43.549 21.9375C42.5695 22.5833 41.3906 22.9062 40.0121 22.9062C38.6336 22.9062 37.4547 22.5833 36.4752 21.9375C35.4958 21.2917 35.006 20.5208 35.006 19.625C35.006 20.5208 34.5163 21.2917 33.5369 21.9375C32.5574 22.5833 31.3785 22.9062 30 22.9062C28.6215 22.9062 27.4426 22.5833 26.4631 21.9375C25.4837 21.2917 24.994 20.5208 24.994 19.625C24.994 20.5208 24.5042 21.2917 23.5248 21.9375C22.5453 22.5833 21.3664 22.9062 19.9879 22.9062C18.6094 22.9062 17.4365 22.5885 16.4692 21.9531C15.5018 21.3177 15.0181 20.5417 15.0181 19.625V18C15.0181 17.1042 15.3083 16.3438 15.8888 15.7188C16.4692 15.0938 17.1705 14.7812 17.9927 14.7812H21.6929V10.7812H20.0605V7.21875C20.0605 6.98958 20.2237 6.72917 20.5502 6.4375C20.8767 6.14583 21.1608 6 21.4027 6H26.8803C27.1221 6 27.4002 6.14583 27.7146 6.4375C28.029 6.72917 28.1862 6.98958 28.1862 7.21875V10.7812H26.5901V14.7812H28.4401C28.8755 13.8229 29.8791 12.0104 31.451 9.34375V7.1875C31.451 6.95833 31.6264 6.70312 31.977 6.42188C32.3277 6.14062 32.6481 6 32.9383 6H36.4934C36.7836 6 37.104 6.14062 37.4547 6.42188C37.8053 6.70312 37.9807 6.95833 37.9807 7.1875V9.34375C39.5526 12.0104 40.5562 13.8229 40.9915 14.7812Z" fill="#D1C7AD"/>
</svg>
