<svg width="28" height="29" viewBox="0 0 28 29" fill="none" xmlns="http://www.w3.org/2000/svg">
<path fill-rule="evenodd" clip-rule="evenodd" d="M13.9924 28.354C21.5429 28.3454 27.6568 22.2107 27.6482 14.6518C27.6395 7.09292 21.5116 0.972261 13.9611 0.980917C6.41053 0.989572 0.296623 7.12426 0.305268 14.6831C0.313914 22.242 6.44184 28.3627 13.9924 28.354ZM20.2457 17.1695L16.7605 16.9406L16.7604 16.9408L11.0322 10.6008C10.7849 10.3226 10.6649 10.6621 10.8893 11.0316L15.8342 18.8584L14.7833 22.2428C14.5607 22.9737 14.0592 22.9795 13.6976 22.08L8.60459 8.90227C8.33083 8.30046 8.7477 7.71881 9.66853 7.94762L20.2395 10.1807C20.9907 10.3366 21.1708 10.7907 20.8246 11.4205L18.3045 14.8434L19.9032 16.4855C19.9082 16.4907 19.9132 16.4959 19.9182 16.501C20.0972 16.6847 20.2454 16.8366 20.2457 17.1695Z" fill="#fff"/>
</svg>
