<svg width="321" height="103" viewBox="0 0 321 103" fill="none" xmlns="http://www.w3.org/2000/svg">
<g clip-path="url(#clip0)">
<path d="M37.7424 0.658768C35.8942 1.26401 34.0863 2.01016 32.3318 2.89183C30.0353 4.03083 27.835 5.39278 25.7572 6.96159C24.6698 7.79108 23.6349 8.7013 22.6596 9.68593C22.6141 9.80875 23.0342 9.89806 24.426 10.0544C26.325 10.3428 28.2062 10.7586 30.0593 11.2993C37.8436 13.7557 43.9577 18.1716 48.1333 24.3013C50.5162 27.7333 52.0963 31.7597 52.7341 36.0249C53.0329 38.5263 53.0329 41.0601 52.7341 43.5615C52.6075 44.3151 52.4962 45.0074 52.4962 45.0688C52.4962 45.3591 52.891 44.9125 53.6249 43.8071C55.5975 40.6363 56.9996 37.0771 57.7549 33.3229C58.3016 30.6321 58.4584 25.2336 58.0637 22.8833C57.927 22.085 57.7853 21.175 57.7549 20.8847C57.3505 18.8804 56.7691 16.9246 56.0189 15.0453C53.62 9.11803 49.3752 4.33498 44.0539 1.56316C42.5355 0.776001 40.4097 -0.0223178 39.8783 -0.00556985C39.154 0.164593 38.4406 0.386507 37.7424 0.658768Z" fill="url(#paint0_linear)"/>
<path d="M59.1012 13.4654C60.0903 15.8461 60.8502 18.3347 61.3687 20.8903C63.1857 30.4981 60.7917 40.2621 54.9408 47.1288C54.1215 48.1545 53.2277 49.1048 52.2684 49.9704C51.892 50.2196 51.5317 50.4976 51.1904 50.8022C49.0237 52.5615 46.6368 53.9643 44.1045 54.9669C43.1226 55.3688 42.5861 55.6479 42.7278 55.7094C43.8261 56.1225 48.0776 55.9047 51.3321 55.2739C57.4304 54.07 63.1325 51.1121 67.8624 46.6989C72.3822 42.378 75.2722 37.2084 76.3857 31.4304C76.8513 29.0187 76.7299 24.8093 76.1326 22.7159C75.7733 21.4988 69.8768 17.1332 66.0099 15.1513C63.9449 14.1241 59.5365 12.4605 58.8482 12.4493C58.6963 12.4382 58.8077 12.8178 59.1012 13.4654Z" fill="url(#paint1_linear)"/>
<path d="M16.8644 13.1416L15.3004 13.3761C12.8609 13.711 3.11782 18.3223 2.38392 19.4333C2.103 20.1047 1.89734 20.8115 1.7715 21.5379C1.44251 23.1178 1.37671 23.877 1.22487 24.921C0.96804 27.5649 0.915552 30.2281 1.06797 32.8819C1.2889 34.822 1.60656 36.7472 2.01951 38.6487C2.19159 39.2461 2.19159 39.2461 2.45984 38.9223C5.21321 35.4052 8.40185 32.3124 10.9528 30.6656C11.1856 30.5148 11.965 29.9901 12.5167 29.6216C14.6368 28.3267 16.868 27.2664 19.1774 26.4562C28.9661 22.9671 39.6505 24.5191 47.2476 30.5316C47.5937 30.8457 47.9789 31.1032 48.3915 31.2964C48.4978 31.1903 47.2021 28.7284 46.3264 27.422C43.5223 23.3978 39.9776 20.074 35.9254 17.6691C30.7832 14.6483 25.049 13.0613 19.223 13.0467C18.1652 13.0802 17.082 13.1137 16.8644 13.1416Z" fill="url(#paint2_linear)"/>
<path d="M27.1845 28.0417C21.639 28.8049 16.3375 31.0111 11.717 34.4785C5.50676 39.0451 1.30079 45.7331 0.192356 52.7896C-0.0935989 55.2577 -0.0560976 57.7583 0.303706 60.2145C0.490975 61.091 0.582079 61.2585 1.44251 62.0903C5.89197 66.1316 11.0513 69.1138 16.5961 70.8495C17.8007 71.2068 18.1449 71.19 17.8463 70.8216C17.2718 69.5793 16.7647 68.3005 16.3279 66.9919C15.8888 65.5588 15.5171 64.1017 15.2144 62.6263C14.4198 57.5237 14.4805 53.4986 15.4523 49.0995C16.203 45.9659 17.3988 42.9832 18.9952 40.2621C22.1535 34.9698 27.5185 30.4981 33.2125 28.4101C33.9768 28.131 34.0881 28.0417 33.835 27.9468C33.3492 27.7626 28.794 27.824 27.1845 28.0417Z" fill="url(#paint3_linear)"/>
<path d="M23.6972 38.8441C23.5677 38.9585 23.4739 39.1146 23.4289 39.2907C23.428 39.3392 23.4148 39.3865 23.3906 39.427C23.3664 39.4675 23.3323 39.4996 23.2923 39.5196C23.0847 39.5978 21.9763 41.4289 21.2677 42.9027C18.0285 49.6019 17.3907 58.0596 19.5317 65.546C20.5452 69.1142 22.2099 72.416 24.4234 75.2482C26.6369 78.0805 29.3523 80.3832 32.4027 82.0148C33.8704 82.7796 36.062 83.6114 36.6238 83.6114C37.4387 83.6114 42.5203 81.7189 44.3525 80.7531C44.7574 80.5187 45.5368 80.1055 46.1037 79.7985C48.5414 78.44 50.842 76.8007 52.9669 74.9081L54.1107 73.8641L51.9495 73.5292C47.108 72.853 42.4274 71.1668 38.1574 68.5606C37.1856 67.9633 35.814 66.964 35.2826 66.5788C31.0487 63.3474 27.6689 58.9337 25.4889 53.7889C23.8526 49.5826 23.2706 44.9688 23.8035 40.4296C23.9066 39.8308 23.9692 39.2243 23.9907 38.6152C23.9907 38.6152 23.8389 38.6934 23.6972 38.8441Z" fill="url(#paint4_linear)"/>
<path d="M74.1739 44.544C73.8825 45.0336 73.5648 45.5034 73.2223 45.9508C72.9895 46.3528 70.97 49.0939 66.9868 52.0359C62.8407 55.1893 58.1486 57.3636 53.2048 58.4225C51.1802 58.8356 51.0334 58.8524 47.8296 58.9808C46.2747 59.0732 44.7155 59.0228 43.1681 58.83C38.1792 58.2251 33.4093 56.2416 29.3001 53.0631C28.4093 52.3597 28.2524 52.2648 28.3485 52.5719C28.9255 54.4811 31.2537 57.8921 33.7439 60.4602C38.1489 64.9017 43.5097 68.0283 49.3176 69.5432C55.29 71.0951 61.8141 70.8495 66.8653 68.8676C69.6642 67.779 73.6222 65.2557 74.2599 64.1671C74.6041 63.6088 75.2469 60.2145 75.4999 57.7861C75.8423 53.9038 75.6236 49.9863 74.8521 46.1797C74.7509 45.6885 74.518 44.371 74.2852 44.3821C74.2397 44.3877 74.1992 44.4659 74.1739 44.544Z" fill="url(#paint5_linear)"/>
<path d="M154.695 10.9308C154.712 12.8329 154.391 14.7203 153.748 16.4856C153.12 18.1782 152.267 19.7586 151.217 21.175C150.15 22.6212 148.926 23.9185 147.573 25.0382C146.205 26.1743 144.76 27.1933 143.251 28.0863C141.789 28.9557 140.282 29.7275 138.736 30.3975C137.218 31.0507 135.816 31.5978 134.49 32.0444C133.815 33.723 133.13 35.6601 132.435 37.856C131.74 40.0518 131.094 42.2849 130.496 44.5552C129.909 46.8292 129.428 48.9971 129.054 51.059C128.712 52.767 128.523 54.5077 128.487 56.2564C128.475 57.0138 128.576 57.7681 128.786 58.4895C128.955 59.0596 129.213 59.5925 129.55 60.0638C129.825 60.4471 130.17 60.7627 130.562 60.9905C130.889 61.1859 131.253 61.293 131.625 61.3031C132.316 61.277 132.977 60.9802 133.488 60.4657C134.167 59.8228 134.754 59.0698 135.229 58.2327C135.835 57.1922 136.364 56.1001 136.813 54.9668C137.319 53.7275 137.77 52.4267 138.185 51.059C137.739 52.5477 137.285 53.9694 136.823 55.3241C136.409 56.5617 135.901 57.7588 135.305 58.9026C134.836 59.8308 134.223 60.6605 133.493 61.3534C132.861 61.944 132.058 62.2649 131.23 62.2578C130.734 62.2578 130.246 62.1113 129.818 61.8335C129.345 61.5144 128.943 61.0811 128.644 60.5662C128.27 59.923 127.996 59.2155 127.834 58.4727C127.624 57.5134 127.523 56.5287 127.536 55.5418C127.558 53.7256 127.727 51.9152 128.042 50.1322C128.379 48.0853 128.806 45.9955 129.322 43.8629C129.838 41.7303 130.412 39.6741 131.043 37.6941C131.677 35.7067 132.286 33.9835 132.87 32.5245L130.304 33.0493L121.325 55.5865C120.674 57.3944 119.837 59.114 118.83 60.7114C118.137 61.6772 117.595 62.1629 117.215 62.1629C116.967 62.1629 116.78 61.9898 116.659 61.6381C116.524 61.1942 116.462 60.7271 116.476 60.2592C116.485 59.5089 116.558 58.7612 116.694 58.0261C116.856 57.1257 117.083 56.2408 117.372 55.3799C117.71 54.3304 118.16 52.9961 118.724 51.3772C119.287 49.7582 119.927 47.9792 120.642 46.0402C121.354 44.1048 122.12 42.1044 122.94 40.0388C123.76 37.9732 124.602 35.9914 125.465 34.0933L122.348 34.8079C121.622 36.6166 120.767 38.5222 119.782 40.5245C118.796 42.5268 117.72 44.5124 116.552 46.4812C115.378 48.45 114.135 50.3314 112.822 52.1252C111.586 53.8199 110.232 55.4064 108.773 56.8705C107.523 58.1421 106.134 59.2373 104.638 60.1308C103.4 60.8988 102.009 61.317 100.589 61.3478C99.2045 61.3369 97.8584 60.8446 96.7423 59.941C95.5377 59.0087 94.4394 57.4399 93.4525 55.2515C92.398 56.9521 91.4834 58.7532 90.7194 60.6332C89.9353 62.5532 89.2872 64.5372 88.7809 66.5676C88.2626 68.6326 87.8754 70.7349 87.6218 72.8592C87.3698 74.9842 87.243 77.125 87.2422 79.2681C87.2193 82.3558 87.4908 85.4376 88.052 88.4627C88.4995 90.9884 89.2967 93.423 90.4157 95.6811C91.3469 97.5644 92.6641 99.1817 94.2623 100.404C95.8088 101.53 97.6278 102.114 99.4805 102.079C100.467 102.025 101.433 101.749 102.32 101.269C103.561 100.641 104.728 99.8499 105.797 98.9135C107.119 97.7535 108.327 96.4438 109.401 95.0056C110.654 93.3435 111.731 91.5285 112.61 89.596C113.601 87.4153 114.375 85.1223 114.918 82.7573C115.531 80.0636 115.83 77.2945 115.808 74.5173C115.818 73.2283 115.662 71.9444 115.343 70.7043C115.105 69.7531 114.714 68.8568 114.189 68.0582C113.756 67.414 113.183 66.8997 112.524 66.562C111.917 66.2481 111.255 66.0843 110.585 66.0819C109.453 66.0995 108.373 66.6043 107.574 67.4887C106.579 68.5379 105.741 69.753 105.088 71.0895C104.31 72.6468 103.665 74.2802 103.16 75.9688C102.631 77.6974 102.188 79.4567 101.834 81.2388C102.113 79.3233 102.526 77.4345 103.069 75.5891C103.566 73.8447 104.224 72.161 105.033 70.5648C105.699 69.2159 106.565 67.999 107.594 66.9639C108.422 66.0974 109.515 65.6053 110.656 65.585C111.414 65.5885 112.158 65.8139 112.812 66.2382C113.546 66.7169 114.168 67.3784 114.629 68.1698C115.204 69.159 115.628 70.2452 115.884 71.3854C116.22 72.8447 116.38 74.3463 116.36 75.8515C116.377 78.5341 116.09 81.2086 115.505 83.8124C114.978 86.1296 114.223 88.3761 113.252 90.5116C112.379 92.4319 111.302 94.231 110.044 95.8709C108.936 97.3228 107.685 98.6336 106.313 99.7788C105.148 100.759 103.872 101.567 102.517 102.185C101.432 102.703 100.268 102.987 99.0857 103.022C97.3864 103.013 95.7263 102.458 94.3078 101.426C92.692 100.238 91.3378 98.6661 90.3448 96.8256C89.1217 94.5701 88.2155 92.1231 87.6572 89.5681C86.9562 86.4269 86.6161 83.2008 86.645 79.966C86.6472 77.7248 86.7893 75.4864 87.0701 73.2668C87.3515 71.0225 87.7674 68.8013 88.3152 66.6178C88.8517 64.4622 89.5283 62.3521 90.3398 60.3038C91.1341 58.2879 92.0841 56.3511 93.1792 54.5146C92.6854 53.2579 92.3106 51.9484 92.0606 50.6068C91.7074 48.6946 91.5377 46.7466 91.5545 44.7952C91.5427 42.7946 91.7208 40.7982 92.0859 38.8385C92.4103 37.1062 92.8901 35.4138 93.5183 33.7862C94.0748 32.3459 94.776 30.9789 95.6086 29.7109C96.3429 28.5908 97.1902 27.5663 98.1342 26.6572C98.9268 25.8856 99.8211 25.2512 100.786 24.7758C101.604 24.3668 102.49 24.1482 103.388 24.1338C104.405 24.1207 105.408 24.3997 106.298 24.9433C107.204 25.5136 107.975 26.3135 108.545 27.2768C109.219 28.4158 109.712 29.6732 110.003 30.9949C110.364 32.6392 110.534 34.3276 110.509 36.0193C110.509 36.2426 110.509 36.4659 110.509 36.6836C110.509 36.9013 110.509 37.147 110.474 37.4038C112.382 36.3401 114.392 35.5162 116.466 34.9474C118.313 34.4459 120.184 34.0564 122.069 33.7806C122.852 32.318 123.591 30.8888 124.286 29.4932C124.974 28.0919 125.683 26.7018 126.397 25.2727C127.11 23.8435 127.875 22.4311 128.684 20.9852C129.494 19.5393 130.395 18.0208 131.397 16.4353C131.792 15.7769 132.227 15.1483 132.698 14.554C133.078 14.0906 133.366 13.8617 133.569 13.8617C133.771 13.8617 133.822 14.018 133.822 14.3362C133.794 14.7752 133.716 15.2086 133.589 15.6258C133.377 16.3718 133.123 17.1027 132.83 17.8142L126.938 33.0661L129.975 32.3961C130.583 30.7168 131.293 29.0848 132.101 27.5113C132.931 25.8775 133.774 24.3143 134.631 22.8219C135.497 21.3257 136.317 19.9524 137.106 18.6963C137.896 17.4402 138.534 16.4018 139.045 15.5756C138.397 16.7182 137.677 18.0208 136.884 19.4835C136.094 20.9629 135.305 22.4813 134.53 24.0333C133.756 25.5853 133.012 27.1038 132.334 28.5609C131.655 30.0179 131.084 31.2964 130.638 32.3738L133.169 31.6592C133.86 30.1705 134.643 28.5274 135.517 26.7297C136.383 24.9321 137.314 23.1122 138.296 21.2699C139.278 19.4276 140.32 17.6524 141.414 15.9329C142.431 14.3205 143.555 12.7923 144.774 11.3607C145.804 10.1363 146.967 9.05626 148.236 8.14508C149.266 7.3807 150.473 6.95831 151.714 6.92807C152.092 6.93132 152.466 7.02064 152.812 7.19046C153.176 7.3683 153.502 7.62892 153.768 7.95528C154.064 8.31608 154.295 8.73449 154.452 9.18904C154.631 9.74781 154.713 10.3386 154.695 10.9308ZM110.155 35.4945C110.161 33.9471 109.963 32.407 109.568 30.9223C109.239 29.6994 108.725 28.5463 108.049 27.5113C107.472 26.6298 106.721 25.9044 105.853 25.3899C105.034 24.9178 104.124 24.6725 103.201 24.6753C102.357 24.6898 101.526 24.901 100.761 25.295C99.8591 25.7581 99.0262 26.3699 98.2911 27.1094C97.4249 27.9778 96.6506 28.9516 95.9831 30.0123C95.2165 31.234 94.5733 32.5444 94.0649 33.9202C93.4901 35.466 93.0545 37.0704 92.7641 38.7101C92.4244 40.5605 92.2548 42.4439 92.258 44.3319C92.2379 46.1671 92.4078 47.9989 92.7641 49.7917C93.01 51.0709 93.3607 52.3228 93.8118 53.5321C94.2336 52.7877 94.6807 52.0638 95.1531 51.3604C95.6288 50.6458 96.1097 49.9815 96.5854 49.3618C97.0612 48.7421 97.5218 48.1783 97.9571 47.687C98.3277 47.2526 98.7179 46.8389 99.1262 46.4477C99.0125 45.9647 98.9581 45.4672 98.9643 44.9683C98.9664 44.475 99.0002 43.9825 99.0655 43.4945C99.1339 42.9918 99.2423 42.4967 99.3894 42.015C99.5267 41.5635 99.7136 41.1323 99.9462 40.731C100.138 40.3803 100.404 40.0855 100.721 39.8713C100.28 40.6618 99.9297 41.5093 99.6779 42.3947C99.4911 43.0759 99.3907 43.7822 99.3793 44.4937C99.3741 45.0386 99.4285 45.5822 99.5413 46.1127C100.554 45.1302 101.497 44.2258 102.371 43.3996C103.244 42.5733 104.102 41.829 104.942 41.1665C105.777 40.5022 106.602 39.8825 107.427 39.3075C108.252 38.7325 109.117 38.1909 110.023 37.6327C110.054 37.2196 110.084 36.8455 110.104 36.5161C110.125 36.1868 110.175 35.7904 110.175 35.4722L110.155 35.4945ZM121.629 34.8302C121.069 34.8725 120.511 34.9508 119.959 35.0647C119.316 35.1931 118.643 35.3494 117.934 35.5448C117.226 35.7401 116.492 35.9467 115.753 36.1868C115.014 36.4268 114.31 36.6724 113.642 36.9237C112.974 37.1749 112.351 37.4429 111.78 37.7108C111.308 37.9304 110.847 38.1764 110.398 38.4477C110.215 39.9787 109.862 41.4788 109.345 42.9139C108.847 44.3335 108.212 45.6903 107.452 46.9613C106.806 48.0683 106.007 49.0572 105.083 49.8922C104.401 50.5662 103.529 50.9605 102.613 51.0087C101.924 50.9912 101.267 50.6836 100.776 50.149C100.077 49.348 99.574 48.3646 99.3135 47.2907C98.3821 48.1705 97.5342 49.1525 96.7828 50.2216C95.8752 51.4795 94.9759 52.8063 94.0851 54.202C95.0974 56.4351 96.1755 58.0819 97.3497 59.0868C98.4262 60.0473 99.7662 60.5767 101.151 60.5886C102.415 60.5313 103.64 60.093 104.694 59.3213C106.085 58.3669 107.376 57.2434 108.54 55.9717C109.923 54.4881 111.215 52.9047 112.407 51.232C113.689 49.453 114.902 47.6089 116.046 45.6996C117.19 43.7903 118.24 41.8922 119.194 40.0053C120.173 38.1407 120.991 36.4082 121.649 34.8079L121.629 34.8302ZM109.988 38.6375C108.164 39.6597 106.413 40.8316 104.749 42.1435C102.942 43.5567 101.264 45.1609 99.7387 46.9334C99.9052 47.8478 100.306 48.6905 100.893 49.3618C101.36 49.8505 101.979 50.124 102.624 50.1267C103.41 50.0926 104.169 49.8011 104.805 49.2893C105.645 48.6545 106.379 47.8651 106.976 46.9557C107.722 45.836 108.339 44.6191 108.814 43.3326C109.377 41.8186 109.772 40.2345 109.988 38.6152V38.6375ZM126.614 33.7806L118.38 56.4406C117.593 58.603 117.2 60.1271 117.2 61.0128C117.2 61.426 117.286 61.6325 117.453 61.6325C117.701 61.6325 118.137 61.1803 118.769 60.2759C119.704 58.7491 120.478 57.1104 121.077 55.3911L129.717 33.0605L126.614 33.7806ZM133.381 14.7996C133.381 14.6768 133.351 14.6098 133.29 14.6098C133.133 14.6098 132.85 14.9001 132.435 15.4695C131.974 16.1112 131.543 16.7783 131.144 17.4681C130.186 19.0275 129.342 20.4902 128.614 21.8561C127.89 23.2238 127.217 24.5469 126.589 25.8365C125.961 27.1261 125.354 28.4045 124.752 29.6941C124.149 30.9837 123.507 32.3403 122.813 33.7695L125.749 33.2447L132.465 17.4681C132.728 16.8979 132.96 16.3106 133.159 15.7096C133.27 15.4148 133.344 15.105 133.381 14.7884V14.7996ZM154.396 11.0369C154.402 10.5176 154.323 10.0013 154.163 9.51284C154.027 9.10035 153.819 8.72112 153.551 8.39631C153.309 8.10349 153.014 7.8696 152.685 7.70964C152.368 7.54844 152.022 7.46647 151.673 7.46959C150.568 7.51952 149.5 7.92511 148.601 8.63636C147.409 9.52388 146.317 10.5639 145.346 11.7347C144.175 13.1264 143.094 14.6077 142.112 16.1674C141.049 17.831 140.049 19.5467 139.111 21.3146C138.173 23.0824 137.329 24.8372 136.58 26.579C135.824 28.3245 135.208 29.9119 134.733 31.341C136.383 30.712 138.011 29.99 139.617 29.1749C141.197 28.3822 142.732 27.4836 144.213 26.4841C145.631 25.53 146.984 24.4628 148.262 23.2908C149.449 22.2038 150.53 20.9819 151.486 19.6454C152.371 18.3988 153.09 17.0189 153.622 15.5477C154.138 14.1083 154.401 12.5736 154.396 11.0257V11.0369Z" fill="#D8CD7D"/>
<path d="M144.987 47.6256C144.238 50.2309 143.418 52.8194 142.527 55.3911C142.28 56.0554 142.082 56.7405 141.935 57.4399C141.841 57.9263 141.792 58.422 141.788 58.9193C141.789 59.1908 141.811 59.4616 141.854 59.7288C142.057 60.3652 142.325 60.6835 142.664 60.6835C143.003 60.6835 143.519 60.315 144.025 59.5669C144.48 58.9358 144.901 58.2759 145.286 57.5907C145.645 56.9431 146.045 56.2676 146.475 55.5642L146.637 55.8991C146.419 56.2508 146.197 56.6249 145.964 57.0157L145.286 58.1824C145.063 58.5621 144.845 58.9193 144.638 59.2543L144.132 60.0861C143.892 60.38 143.612 60.6305 143.302 60.8286C143.097 60.9565 142.868 61.0292 142.634 61.0408C142.421 61.0476 142.214 60.9726 142.046 60.8286C141.869 60.6629 141.722 60.4599 141.616 60.2313C141.43 59.853 141.309 59.4406 141.257 59.0142C141.191 58.5338 141.157 58.0487 141.156 57.5627C141.143 57.0016 141.182 56.4405 141.272 55.888C141.1 56.3346 140.931 56.7477 140.766 57.1273C140.614 57.4937 140.445 57.8515 140.26 58.1992C140.076 58.5445 139.875 58.8781 139.657 59.1985C139.417 59.5564 139.158 59.8994 138.883 60.2257C138.686 60.382 138.463 60.5495 138.215 60.7225C138.012 60.8833 137.771 60.9745 137.522 60.9849C137.406 60.9886 137.292 60.9546 137.194 60.887C137.096 60.8195 137.018 60.7215 136.97 60.6053C136.727 59.906 136.617 59.1594 136.646 58.4113C136.648 57.5971 136.714 56.7845 136.843 55.9829C136.937 55.3028 137.088 54.6337 137.294 53.9843L141.849 39.782H143.028C142.876 40.3402 142.618 41.1497 142.264 42.2607C141.91 43.3716 141.51 44.6277 141.054 46.0234C140.599 47.4191 140.143 48.932 139.637 50.4839C139.131 52.0359 138.67 53.5153 138.24 54.9166L137.916 55.9382C137.795 56.3401 137.673 56.7477 137.562 57.1775C137.451 57.6074 137.349 58.0205 137.269 58.4169C137.202 58.7376 137.165 59.0649 137.157 59.3939C137.13 59.7369 137.186 60.0816 137.319 60.3932C137.357 60.479 137.416 60.5516 137.49 60.6028C137.563 60.654 137.647 60.6819 137.734 60.6835C137.965 60.6632 138.183 60.5614 138.357 60.3932C138.594 60.1987 138.811 59.9759 139.005 59.7288C139.549 59.0262 140.01 58.2495 140.376 57.4176C140.786 56.5132 141.135 55.6758 141.429 54.9166L146.136 39.8099H147.315C146.509 42.4189 145.733 45.0241 144.987 47.6256Z" fill="#D8CD7D"/>
<path d="M159.66 41.7639C159.662 41.9746 159.631 42.1842 159.569 42.3835C159.546 42.4673 159.507 42.5446 159.455 42.6102C159.402 42.6757 159.338 42.7279 159.265 42.7632C159.272 42.2029 159.141 41.6511 158.885 41.1665C158.803 41.03 158.692 40.9176 158.561 40.8389C158.431 40.7601 158.285 40.7174 158.136 40.7143C157.834 40.7298 157.541 40.8381 157.291 41.0269C156.981 41.2436 156.694 41.4983 156.436 41.7862C156.173 42.0806 155.934 42.4 155.722 42.7408C155.543 43.0078 155.407 43.306 155.317 43.6229C154.915 44.372 154.576 45.1607 154.305 45.9787C154.021 46.8236 153.752 47.7224 153.495 48.6752C153.239 49.628 152.977 50.644 152.711 51.7233C152.447 52.7989 152.139 53.975 151.784 55.2515C151.649 55.7614 151.523 56.2694 151.405 56.7756C151.289 57.2886 151.231 57.8156 151.233 58.3443C151.233 58.5062 151.233 58.7463 151.278 59.0589C151.331 59.4828 151.494 59.8805 151.749 60.2034C151.867 60.3461 152.012 60.4586 152.174 60.5328C152.336 60.6071 152.51 60.6413 152.685 60.6332C152.864 60.6329 153.043 60.6085 153.217 60.5606C153.432 60.4979 153.636 60.394 153.819 60.2536C154.84 59.2288 155.768 58.0956 156.588 56.8705C157.466 55.5416 158.224 54.1204 158.85 52.6277L159.012 53.1525C158.688 53.8168 158.364 54.47 158.045 55.1064C157.715 55.7532 157.355 56.3811 156.967 56.9877C156.115 58.3381 155.109 59.5632 153.976 60.6332C153.576 60.9662 153.095 61.1605 152.594 61.1915C152.193 61.1941 151.807 61.0215 151.521 60.7114C151.22 60.3953 150.994 60.0022 150.863 59.5669C150.751 59.3482 150.687 59.1035 150.676 58.8524C150.643 58.472 150.628 58.09 150.63 57.7079C150.63 57.0436 150.63 56.3904 150.701 55.754C150.086 57.2007 149.328 58.5676 148.439 59.8293C147.821 60.6109 147.315 60.9961 146.92 60.9961C146.766 60.9956 146.614 60.9493 146.482 60.8618C146.349 60.7744 146.24 60.6491 146.166 60.4992C145.951 60.0954 145.807 59.6503 145.741 59.1873C145.682 58.9143 145.646 58.6358 145.635 58.3555C145.635 58.082 145.635 57.7972 145.635 57.5683C145.619 56.6732 145.728 55.7806 145.959 54.9222C146.071 54.3899 146.293 53.8933 146.607 53.4707C146.696 53.0109 146.848 52.5687 147.057 52.1588C147.199 51.9187 147.335 51.8015 147.457 51.8015C147.675 51.8015 147.781 52.0583 147.781 52.5663C147.773 52.8876 147.685 53.2003 147.528 53.4707C147.437 53.6308 147.311 53.7629 147.161 53.8547C147.012 53.9464 146.844 53.9949 146.672 53.9955C146.433 54.4736 146.236 54.9766 146.085 55.4972C145.902 56.119 145.812 56.7694 145.817 57.4232C145.822 57.8559 145.861 58.2874 145.933 58.7128C146.197 59.9186 146.556 60.5216 147.022 60.5216C147.791 60.5216 148.768 59.044 149.952 56.0889C150.043 55.8656 150.185 55.486 150.367 54.9445C150.549 54.403 150.767 53.7721 151.005 53.0408C151.243 52.3095 151.511 51.5223 151.744 50.6794C151.977 49.8364 152.25 49.0045 152.483 48.1783C152.716 47.3521 152.928 46.5761 153.105 45.8448C153.262 45.2162 153.389 44.5788 153.485 43.9355C153.588 43.6114 153.661 43.2766 153.703 42.9362C153.741 42.6534 153.761 42.368 153.763 42.0821C153.782 41.7276 153.717 41.3738 153.576 41.0549C153.532 40.9481 153.46 40.8577 153.37 40.7944C153.281 40.7311 153.176 40.6975 153.07 40.6976C152.824 40.7185 152.594 40.8376 152.422 41.0325C152.145 41.3232 151.911 41.6604 151.729 42.0318L151.546 41.6969C151.779 41.3507 152.053 40.96 152.306 40.5301C152.394 40.3523 152.521 40.201 152.674 40.0891C152.828 39.9773 153.003 39.9083 153.186 39.8881C153.369 39.8881 153.556 40.0332 153.738 40.3179C154.016 40.6027 154.153 41.2391 154.153 42.2216C154.149 42.8516 154.103 43.4804 154.016 44.103C153.933 44.7552 153.809 45.4006 153.647 46.0346C153.892 45.2471 154.178 44.4754 154.502 43.7234C154.765 43.1372 155.039 42.5733 155.332 42.0486C155.58 41.7639 155.808 41.4903 156.016 41.2167C156.206 40.9644 156.41 40.7257 156.628 40.5022C156.811 40.306 157.021 40.1439 157.251 40.0221C157.482 39.9061 157.735 39.8489 157.99 39.8546C158.378 39.8763 158.761 39.9746 159.118 40.1449C159.312 40.3054 159.454 40.5305 159.523 40.7869C159.621 41.101 159.667 41.4318 159.66 41.7639Z" fill="#D8CD7D"/>
<path d="M167.854 52.6277C167.566 53.2976 167.227 54.1239 166.842 55.1064C166.471 56.0773 166.05 57.0242 165.582 57.9424C165.167 58.781 164.657 59.5577 164.063 60.2536C163.84 60.5424 163.564 60.7766 163.254 60.941C162.943 61.1054 162.605 61.1964 162.261 61.2082C162.065 61.2065 161.875 61.1394 161.714 61.0159C161.553 60.8924 161.43 60.7181 161.36 60.516C161.163 60.0613 161.061 59.5632 161.062 59.0589C161.058 58.7403 161.086 58.4222 161.143 58.1099C161.198 57.8252 161.254 57.5516 161.315 57.3004C161.148 57.7414 160.961 58.188 160.748 58.6346C160.553 59.0585 160.326 59.4637 160.07 59.8461C159.841 60.1932 159.565 60.4984 159.25 60.7505C158.966 60.984 158.622 61.1094 158.268 61.1078C158.143 61.1058 158.02 61.0677 157.913 60.9971C157.806 60.9266 157.717 60.8261 157.656 60.7058C157.481 60.4052 157.353 60.0752 157.276 59.7288C157.18 59.3148 157.114 58.8929 157.079 58.4672C157.038 58.0038 157.023 57.5851 157.023 57.2055C157.03 55.9462 157.154 54.691 157.392 53.4595C157.637 52.1351 157.96 50.8297 158.359 49.5516C158.75 48.2871 159.217 47.0524 159.756 45.8559C160.237 44.7922 160.787 43.768 161.401 42.7911C161.885 42.0011 162.456 41.281 163.102 40.6473C163.52 40.1791 164.077 39.8919 164.671 39.8378C164.81 39.8501 164.945 39.8998 165.063 39.9825C165.181 40.0651 165.279 40.1784 165.349 40.3124C165.629 40.8542 165.801 41.4555 165.855 42.0765L166.528 39.8434H167.702C167.49 40.5747 167.161 41.6634 166.725 43.1093L165.283 47.8155C164.767 49.5126 164.239 51.2432 163.699 53.0073C163.162 54.7714 162.686 56.3569 162.312 57.7023C162.227 58.0151 162.163 58.3341 162.12 58.657C162.08 58.9247 162.06 59.1953 162.059 59.4665C162.059 59.9075 162.12 60.1866 162.246 60.2983C162.392 60.4178 162.571 60.4771 162.752 60.4658C163.073 60.4272 163.382 60.3112 163.658 60.1259C163.933 59.9407 164.169 59.6907 164.347 59.3939C164.916 58.6244 165.415 57.794 165.835 56.9152C166.29 55.9773 166.68 55.0785 167.014 54.2243C167.348 53.3702 167.571 52.7952 167.692 52.5049C167.803 52.516 167.854 52.5663 167.854 52.6277ZM165.501 42.2328C165.526 41.7208 165.452 41.2088 165.283 40.7311C165.24 40.5928 165.161 40.4718 165.055 40.3833C164.95 40.2948 164.823 40.2429 164.691 40.2342C164.306 40.2342 163.871 40.5803 163.39 41.2837C162.816 42.139 162.321 43.0554 161.912 44.0193C161.409 45.1358 160.92 46.3919 160.444 47.7875C159.969 49.1665 159.538 50.5789 159.164 51.9299C158.789 53.2809 158.486 54.6263 158.263 55.8656C158.065 56.8678 157.953 57.8884 157.929 58.9138C157.924 59.2896 157.962 59.6646 158.04 60.0303C158.121 60.3653 158.263 60.5327 158.481 60.5327C158.819 60.5195 159.139 60.3636 159.376 60.0973C159.702 59.7492 159.986 59.3572 160.222 58.9305C160.51 58.4074 160.769 57.8648 160.996 57.306C161.244 56.7477 161.477 56.1392 161.689 55.5642C161.781 55.313 161.927 54.8663 162.13 54.2299L162.813 52.0415L163.608 49.44C163.884 48.5356 164.142 47.6871 164.382 46.8943C164.62 46.1016 164.817 45.4149 164.979 44.8455C165.141 44.276 165.248 43.9076 165.293 43.7289C165.323 43.4777 165.364 43.2042 165.42 42.9195C165.467 42.6941 165.494 42.4641 165.501 42.2328Z" fill="#D8CD7D"/>
<path d="M174.56 47.6256C173.815 50.2309 172.995 52.8194 172.101 55.3911C171.855 56.0554 171.659 56.7406 171.513 57.4399C171.418 57.9261 171.367 58.4218 171.362 58.9193C171.364 59.1909 171.388 59.4618 171.432 59.7288C171.63 60.3652 171.903 60.6835 172.242 60.6835C172.581 60.6835 173.093 60.315 173.604 59.5669C174.058 58.9371 174.478 58.2772 174.859 57.5907C175.223 56.9431 175.618 56.2676 176.048 55.5642L176.21 55.8991L175.542 57.0157C175.309 57.412 175.087 57.8028 174.859 58.1824C174.631 58.5621 174.424 58.9193 174.216 59.2543L173.71 60.0861C173.468 60.3774 173.188 60.6276 172.88 60.8286C172.675 60.9554 172.446 61.028 172.212 61.0407C171.998 61.0466 171.789 60.9718 171.62 60.8286C171.443 60.6626 171.299 60.4595 171.195 60.2313C171.007 59.8541 170.885 59.4412 170.835 59.0142C170.767 58.5341 170.733 58.0488 170.734 57.5627C170.723 57.0018 170.76 56.441 170.845 55.888C170.678 56.3346 170.516 56.7477 170.339 57.1273C170.187 57.4937 170.018 57.8515 169.833 58.1992C169.651 58.5444 169.452 58.878 169.236 59.1985C168.995 59.5564 168.737 59.8994 168.461 60.2257C168.259 60.382 168.036 60.5495 167.793 60.7225C167.59 60.8827 167.349 60.9739 167.1 60.9849C166.984 60.989 166.869 60.9552 166.77 60.8877C166.671 60.8202 166.592 60.7219 166.543 60.6053C166.303 59.9053 166.193 59.1592 166.219 58.4113C166.221 57.597 166.287 56.7845 166.417 55.9829C166.516 55.3039 166.666 54.6353 166.867 53.9843L171.422 39.782H172.602C172.445 40.3402 172.192 41.1497 171.837 42.2607C171.483 43.3716 171.078 44.6277 170.628 46.0234C170.177 47.4191 169.696 48.8985 169.195 50.456C168.694 52.0136 168.229 53.4874 167.798 54.8887C167.702 55.1734 167.596 55.5139 167.475 55.9103C167.353 56.3067 167.232 56.7198 167.115 57.1496C166.999 57.5795 166.903 57.9926 166.827 58.389C166.759 58.7096 166.72 59.0369 166.71 59.366C166.686 59.7088 166.742 60.0529 166.872 60.3653C166.911 60.4507 166.97 60.5229 167.043 60.5741C167.116 60.6252 167.201 60.6534 167.287 60.6555C167.518 60.6373 167.737 60.5352 167.91 60.3653C168.148 60.1723 168.366 59.9493 168.558 59.7009C169.106 59.0001 169.569 58.2231 169.934 57.3897C170.339 56.4853 170.688 55.6479 170.982 54.8887L175.694 39.782H176.873C176.064 42.4096 175.293 45.0241 174.56 47.6256Z" fill="#D8CD7D"/>
<path d="M187.345 40.4296C187.037 40.4631 186.591 40.4743 186.004 40.4743C185.341 40.6027 184.683 41.6913 184.02 43.7401C183.357 45.789 182.755 47.6089 182.208 49.1944C181.661 50.7798 180.978 52.6779 180.184 54.8663C179.64 56.1057 179.303 56.8687 179.171 57.1552C179.019 57.5217 178.85 57.8794 178.665 58.2271C178.481 58.5724 178.28 58.906 178.063 59.2264C177.822 59.5843 177.564 59.9273 177.288 60.2536C177.091 60.4099 176.868 60.5774 176.62 60.7505C176.418 60.9112 176.176 61.0025 175.927 61.0129C175.811 61.0173 175.697 60.9836 175.599 60.9159C175.5 60.8483 175.423 60.7499 175.375 60.6332C175.136 59.9275 175.031 59.175 175.067 58.4225C175.101 57.2956 175.228 56.1745 175.446 55.0729C175.699 53.6437 176.065 53.2139 176.544 53.7833C176.55 54.4985 176.471 55.2115 176.312 55.9047C176.19 56.3067 176.069 56.7142 175.952 57.1441C175.836 57.5739 175.745 57.987 175.664 58.3834C175.597 58.7041 175.56 59.0314 175.552 59.3604C175.527 59.7028 175.581 60.0466 175.709 60.3597C175.751 60.4437 175.811 60.5146 175.885 60.5654C175.959 60.6163 176.043 60.6454 176.129 60.65C176.36 60.6297 176.578 60.5279 176.752 60.3597C176.988 60.1651 177.203 59.9423 177.395 59.6953L178.25 58.2662C179.576 55.6944 181.685 49.5312 184.577 39.7764H188.732C187.929 42.3817 187.155 44.9869 186.409 47.5921C185.663 50.1974 184.843 52.7859 183.949 55.3576C183.703 56.0219 183.507 56.7071 183.362 57.4064C183.266 57.8927 183.215 58.3883 183.21 58.8858C183.213 59.1574 183.236 59.4283 183.281 59.6953C183.478 60.3318 183.752 60.65 184.091 60.65C184.43 60.65 184.941 60.2815 185.452 59.5334C185.907 58.9037 186.326 58.2437 186.708 57.5572C187.072 56.9096 187.467 56.2341 187.897 55.5307L188.059 55.8656L187.391 56.9822L186.708 58.2048C186.485 58.5844 186.267 58.9528 186.05 59.3213L185.544 60.1308C185.302 60.4221 185.022 60.6723 184.713 60.8733C184.507 61.0009 184.277 61.0735 184.04 61.0854C183.828 61.0905 183.621 61.0156 183.453 60.8733C183.277 60.7073 183.132 60.5042 183.028 60.2759C182.84 59.8988 182.718 59.4859 182.669 59.0589C182.599 58.5789 182.563 58.0936 182.562 57.6074C182.54 56.7078 182.633 55.8093 182.841 54.9389L187.345 40.4296Z" fill="#D8CD7D"/>
<path d="M244.407 31.6257C243.961 32.0388 243.794 32.0668 243.901 31.7206C244.063 31.1729 244.19 30.6133 244.28 30.0458C244.424 29.2217 244.493 28.384 244.488 27.5448C244.476 26.9931 244.362 26.4497 244.154 25.9482C243.961 25.5183 243.759 25.3006 243.541 25.3006C243.399 25.3089 243.26 25.3542 243.136 25.4327C243.012 25.5113 242.906 25.6209 242.828 25.7528C242.579 26.129 242.387 26.5476 242.261 26.9921C242.087 27.5741 241.96 28.1719 241.881 28.7786C241.788 29.4735 241.743 30.1752 241.745 30.8776C241.75 31.6534 241.819 32.427 241.952 33.1889C242.128 34.1417 242.455 35.0526 242.919 35.8797C243.183 36.2878 243.529 36.6223 243.931 36.8567C244.306 37.0611 244.718 37.168 245.136 37.1693C246.233 37.1255 247.278 36.6434 248.076 35.8127C249.135 34.7851 250.018 33.556 250.683 32.184C251.48 30.5732 252.097 28.8617 252.52 27.087C252.99 25.1763 253.227 23.205 253.224 21.2252C253.217 20.0714 253.105 18.9212 252.89 17.7919C252.682 16.639 252.328 15.5244 251.837 14.4814C251.39 13.5212 250.764 12.6763 250 12.0027C249.233 11.3448 248.283 10.9997 247.312 11.0257C246.029 11.0493 244.782 11.4987 243.734 12.3153C242.455 13.2805 241.308 14.4423 240.327 15.7654C239.145 17.3379 238.087 19.0188 237.164 20.7898C236.152 22.6935 235.215 24.6976 234.345 26.7688C233.474 28.84 232.68 30.9558 231.956 33.0828C231.232 35.2098 230.61 37.2307 230.088 39.1344C229.285 41.5201 228.565 43.4907 227.927 45.0464C227.289 46.6021 226.586 48.1429 225.817 49.6689C225.053 51.1758 224.22 52.6385 223.321 54.0513C222.489 55.3673 221.558 56.6036 220.538 57.747C219.66 58.7377 218.666 59.5939 217.582 60.2927C216.663 60.9006 215.616 61.23 214.545 61.2473C213.854 61.2434 213.169 61.1074 212.52 60.8453C211.672 60.4712 210.876 59.9655 210.157 59.3436C209.396 59.8531 208.586 60.2687 207.742 60.583C206.855 60.9235 205.923 61.0989 204.984 61.1021C203.905 61.1006 202.85 60.7534 201.947 60.1029C200.916 59.3585 200.05 58.366 199.417 57.1999C198.632 55.7658 198.053 54.2065 197.701 52.5774C197.255 50.5681 197.041 48.5049 197.063 46.4365C197.041 44.0642 197.303 41.699 197.843 39.4024C198.269 37.5365 198.937 35.7484 199.827 34.0933C200.526 32.7751 201.47 31.634 202.595 30.7437C203.501 30.0102 204.59 29.6028 205.713 29.5769C206.831 29.5494 207.93 29.9065 208.856 30.5985C209.754 31.2807 210.456 32.2317 210.881 33.3396C211.579 32.4529 212.461 31.7653 213.452 31.3354C214.297 30.9782 215.193 30.7892 216.099 30.7772C216.979 30.7716 217.847 31.0015 218.629 31.4471C219.468 31.9354 220.188 32.6379 220.73 33.4959C221.403 34.5737 221.895 35.7764 222.182 37.0465C222.575 38.7498 222.759 40.5035 222.729 42.2607C222.735 43.6669 222.578 45.0682 222.263 46.4309C221.992 47.6466 221.573 48.8164 221.018 49.9089C220.56 50.8256 219.945 51.6352 219.206 52.2927C218.606 52.8452 217.853 53.1562 217.071 53.1748C216.62 53.1754 216.175 53.0687 215.765 52.8622C215.335 52.6553 214.946 52.3575 214.621 51.9857C214.285 53.2369 213.809 54.4371 213.204 55.5586C212.533 56.817 211.696 57.9574 210.719 58.9417C211.317 59.4471 211.95 59.9007 212.611 60.2982C213.207 60.6614 213.875 60.8534 214.555 60.8565C215.668 60.7968 216.732 60.3337 217.582 59.539C218.687 58.5982 219.674 57.5 220.517 56.2731C221.504 54.8556 222.398 53.3632 223.195 51.807C224.038 50.1694 224.804 48.5579 225.493 46.9724C226.176 45.3814 226.768 43.9187 227.259 42.5845C227.75 41.2502 228.297 39.7429 228.899 38.0625C229.591 35.9039 230.345 33.7192 231.161 31.5085C231.978 29.2978 232.85 27.1801 233.778 25.1554C234.668 23.1779 235.651 21.253 236.724 19.3885C237.679 17.7191 238.768 16.1478 239.978 14.6935C241.01 13.4506 242.204 12.3838 243.521 11.5282C244.669 10.7705 245.98 10.3675 247.317 10.3614C248.322 10.3367 249.308 10.6609 250.136 11.2881C250.964 11.9413 251.643 12.7974 252.12 13.7891C252.671 14.9256 253.063 16.147 253.284 17.4123C253.544 18.8082 253.673 20.23 253.669 21.6551C253.657 25.5385 252.814 29.3639 251.209 32.8204C250.556 34.2445 249.667 35.5208 248.587 36.5831C247.729 37.4751 246.603 37.986 245.424 38.0179C244.919 38.0183 244.42 37.9043 243.956 37.6829C243.454 37.4304 243.021 37.0355 242.701 36.5385C242.143 35.5825 241.761 34.5144 241.578 33.3954C241.439 32.4727 241.366 31.5394 241.36 30.6041C241.362 29.9178 241.412 29.2327 241.512 28.5553C241.603 27.8919 241.746 27.2383 241.937 26.6013C242.085 26.07 242.317 25.5713 242.62 25.1275C242.722 24.9621 242.857 24.8255 243.015 24.7285C243.174 24.6315 243.35 24.5769 243.531 24.5692C243.931 24.5692 244.27 24.9433 244.543 25.6858C244.819 26.3893 244.946 27.1531 244.913 27.9188C244.872 28.6502 244.837 29.2754 244.807 29.8002C244.758 30.4275 244.623 31.043 244.407 31.6257ZM210.531 33.8588C210.074 32.7337 209.328 31.7809 208.385 31.1177C207.557 30.5939 206.617 30.3223 205.662 30.3305C204.552 30.3493 203.476 30.758 202.59 31.4973C201.525 32.3757 200.635 33.4876 199.978 34.7632C199.159 36.3435 198.549 38.0448 198.166 39.8155C197.695 41.9512 197.467 44.1436 197.488 46.3416C197.46 48.3812 197.676 50.416 198.131 52.3932C198.494 53.9624 199.08 55.4584 199.867 56.8258C200.507 57.9429 201.373 58.8811 202.398 59.5669C203.29 60.1711 204.316 60.4936 205.364 60.4992C206.184 60.4921 206.998 60.3471 207.778 60.0694C208.539 59.8063 209.264 59.4307 209.934 58.9528C209.36 58.3485 208.884 57.6405 208.527 56.8593C208.066 55.9464 207.68 54.9898 207.373 54.001C207.079 54.0959 206.796 54.1741 206.528 54.2355C206.267 54.2995 206 54.3314 205.733 54.3304C204.999 54.3428 204.284 54.0745 203.709 53.5711C203.106 53.0275 202.62 52.3429 202.286 51.567C201.904 50.6962 201.625 49.775 201.456 48.8259C201.274 47.8298 201.183 46.8162 201.183 45.8001C201.179 44.8411 201.259 43.884 201.421 42.9418C201.559 42.0985 201.805 41.281 202.15 40.5133C202.438 39.8604 202.857 39.2879 203.375 38.8385C203.872 38.4231 204.482 38.2048 205.106 38.2188C204.537 38.2254 203.994 38.4734 203.587 38.9111C203.099 39.425 202.707 40.0396 202.433 40.7199C202.097 41.5267 201.852 42.3761 201.704 43.2488C201.535 44.1676 201.451 45.1027 201.451 46.0401C201.45 46.9797 201.547 47.9163 201.74 48.8315C201.912 49.6918 202.183 50.5247 202.544 51.3102C202.854 51.988 203.286 52.5885 203.815 53.0743C204.285 53.507 204.878 53.7423 205.49 53.7386C205.756 53.7383 206.022 53.7159 206.285 53.6716C206.587 53.6128 206.88 53.5075 207.155 53.359C206.761 51.6306 206.566 49.8544 206.573 48.0722C206.578 46.8364 206.652 45.6021 206.796 44.3765C206.927 43.0866 207.148 41.8099 207.459 40.558C207.783 39.3235 208.199 38.121 208.704 36.9627C209.186 35.8449 209.799 34.8014 210.526 33.8588H210.531ZM211.893 40.865C211.892 39.7404 211.792 38.6186 211.594 37.5154C211.441 36.5612 211.202 35.6261 210.881 34.7241C210.19 35.6277 209.611 36.6283 209.16 37.6997C208.665 38.8513 208.259 40.0464 207.945 41.2726C207.621 42.5296 207.382 43.8116 207.231 45.1078C207.081 46.3253 207.003 47.5525 206.998 48.7812C206.97 50.2139 207.141 51.6428 207.505 53.0185C208.282 52.4572 208.948 51.7279 209.463 50.8747C210.035 49.9533 210.495 48.9528 210.83 47.8992C211.189 46.7761 211.455 45.6195 211.625 44.4435C211.799 43.2586 211.887 42.06 211.888 40.8594L211.893 40.865ZM222.238 41.7192C222.255 40.3125 222.101 38.9098 221.778 37.5489C221.519 36.4495 221.099 35.4046 220.532 34.4561C220.061 33.6707 219.437 33.0109 218.705 32.5245C218.035 32.0849 217.269 31.8534 216.488 31.8546C215.636 31.8603 214.787 31.9727 213.958 32.1896C212.884 32.5493 211.937 33.2646 211.245 34.2384C211.635 35.3775 211.91 36.5608 212.065 37.7666C212.231 38.9734 212.319 40.1916 212.328 41.4121C212.33 42.6995 212.218 43.9839 211.994 45.2474C211.785 46.4467 211.472 47.6208 211.058 48.7533C210.684 49.781 210.199 50.7556 209.615 51.6563C209.118 52.449 208.487 53.1293 207.758 53.6605C207.976 54.4999 208.269 55.3134 208.633 56.0889C209.062 57.0294 209.649 57.8707 210.364 58.5676C210.719 58.2304 211.057 57.8726 211.377 57.4958C211.786 57.0281 212.162 56.526 212.5 55.994C212.896 55.3746 213.246 54.7212 213.548 54.0401C213.902 53.2491 214.177 52.4179 214.368 51.5614C214.066 51.171 213.838 50.7171 213.7 50.2271C213.468 49.4936 213.359 48.7202 213.376 47.9438C213.373 47.3548 213.446 46.7683 213.593 46.202C213.74 45.6438 213.943 45.3702 214.206 45.3702C214.469 45.3702 214.763 45.6605 214.899 46.2523C215.038 46.8505 215.108 47.4658 215.107 48.0834C215.103 48.5929 215.073 49.1018 215.016 49.6075C214.948 50.2181 214.848 50.8239 214.717 51.4218C214.983 51.7577 215.308 52.0301 215.673 52.2221C216.037 52.4141 216.434 52.5217 216.838 52.5383C217.582 52.5312 218.304 52.2546 218.893 51.7512C219.6 51.1493 220.183 50.388 220.603 49.5181C221.137 48.4483 221.534 47.3024 221.783 46.1127C222.089 44.671 222.241 43.1944 222.233 41.7136L222.238 41.7192ZM214.874 48.2006C214.871 47.9691 214.856 47.7379 214.828 47.5084C214.8 47.2602 214.757 47.0141 214.702 46.7715C214.654 46.5781 214.588 46.3909 214.504 46.2132C214.429 46.0513 214.342 45.9732 214.251 45.9732C214.079 45.9732 213.943 46.2188 213.836 46.7101C213.737 47.1238 213.682 47.5493 213.674 47.9773C213.678 48.5542 213.74 49.1289 213.857 49.6912C213.95 50.2184 214.164 50.7105 214.479 51.1204C214.72 50.1673 214.851 49.1844 214.869 48.195L214.874 48.2006ZM233.302 41.5796C232.816 43.8209 232.436 46.0887 232.163 48.3737C231.99 49.9466 231.898 51.529 231.885 53.1134C231.885 55.754 232.204 57.6353 232.832 58.763C233.082 59.2723 233.453 59.6971 233.905 59.992C234.356 60.287 234.873 60.441 235.398 60.4378C236.195 60.4173 236.976 60.1795 237.67 59.7456C238.528 59.235 239.317 58.5942 240.014 57.8419C240.826 56.976 241.562 56.0263 242.21 55.0059C242.914 53.9093 243.527 52.7453 244.042 51.5279C244.579 50.2732 245.004 48.9646 245.313 47.62C245.627 46.3062 245.786 44.9535 245.789 43.5949C245.837 42.7855 245.706 41.9753 245.409 41.2335C245.324 41.0221 245.186 40.8412 245.013 40.711C244.84 40.5809 244.637 40.5066 244.427 40.4966C243.688 40.4966 242.944 40.973 242.195 41.9257C241.377 43.0105 240.696 44.2123 240.17 45.4986C239.545 46.9848 239.046 48.5324 238.682 50.1211C238.317 51.6144 238.123 53.1523 238.105 54.6988C238.104 55.574 238.18 56.4472 238.333 57.3059C238.116 56.2268 238.014 55.1231 238.03 54.0177C238.049 52.4566 238.243 50.9041 238.607 49.3953C238.973 47.7797 239.482 46.2073 240.125 44.7003C240.663 43.3895 241.366 42.1696 242.215 41.0772C242.99 40.1114 243.774 39.6257 244.559 39.6257C244.829 39.6345 245.092 39.7258 245.318 39.8894C245.544 40.053 245.724 40.2825 245.839 40.5524C246.173 41.1721 246.345 42.1993 246.345 43.6284C246.335 44.8917 246.181 46.1484 245.885 47.3688C245.566 48.7065 245.15 50.0134 244.64 51.2767C244.118 52.568 243.504 53.8113 242.802 54.9947C242.146 56.1058 241.4 57.1502 240.575 58.1154C239.862 58.9577 239.046 59.6867 238.151 60.2815C237.424 60.7875 236.586 61.0672 235.727 61.091C235.007 61.0959 234.302 60.8646 233.702 60.4266C233.028 59.9118 232.477 59.224 232.098 58.4225C231.595 57.3851 231.24 56.2685 231.045 55.112C230.784 53.5959 230.66 52.0549 230.675 50.5118C230.681 49.1565 230.779 47.8035 230.969 46.4644C231.303 44.3863 231.761 42.3348 232.341 40.3235C233.302 36.8847 234.486 33.5264 235.884 30.2747C236.946 27.8084 238.166 25.428 239.533 23.1513C240.575 21.4069 241.752 19.7651 243.05 18.2441C244.191 16.9378 245.245 15.8101 246.214 14.861C245.077 16.3199 243.977 17.7882 242.914 19.2657C241.764 20.8889 240.722 22.6017 239.796 24.3906C238.65 26.6025 237.635 28.8944 236.759 31.2517C235.727 33.9053 234.573 37.3461 233.297 41.574L233.302 41.5796Z" fill="#D8CD7D"/>
<path d="M256.939 45.7666C256.681 45.828 256.534 45.8615 256.503 45.8615C255.922 45.8541 255.352 45.681 254.848 45.3591C254.374 45.086 253.937 44.7422 253.548 44.3374C253.344 45.6786 253.077 47.0072 252.748 48.3179C252.38 49.8181 251.941 51.2959 251.432 52.7449C250.931 54.188 250.353 55.5973 249.701 56.9654C249.154 58.1506 248.473 59.2553 247.676 60.2536C247.272 60.7112 246.734 60.9976 246.158 61.0631C245.404 61.0631 245.029 60.1922 245.029 58.4392C245.043 57.6578 245.104 56.8782 245.212 56.1057C245.353 55.1231 245.551 54.0289 245.814 52.8175C246.077 51.6061 246.386 50.4058 246.75 49.1944C247.115 47.9829 247.509 46.8217 247.95 45.694C248.351 44.6506 248.817 43.6395 249.347 42.6682C249.764 41.8797 250.286 41.1646 250.895 40.5468C251.334 40.0677 251.919 39.7869 252.535 39.7597C252.678 39.7557 252.818 39.7995 252.937 39.8852C253.056 39.971 253.149 40.0946 253.203 40.2398C253.353 40.6053 253.462 40.9897 253.527 41.3842C253.527 41.5405 253.527 41.7638 253.527 42.0486C253.527 42.3333 253.527 42.6068 253.527 42.858C253.529 43.0657 253.513 43.273 253.482 43.4777C253.527 43.5447 253.639 43.7178 253.816 44.0025C253.973 44.2634 254.172 44.4905 254.403 44.6724C254.729 44.9787 255.096 45.2273 255.491 45.4093C255.793 45.5418 256.113 45.6136 256.438 45.6215C256.695 45.6235 256.946 45.5312 257.151 45.3591C257.322 45.2317 257.477 45.0796 257.612 44.9069V45.1916C257.451 45.4597 257.214 45.6618 256.939 45.7666ZM253.315 41.7136C253.32 41.361 253.253 41.0116 253.117 40.692C252.986 40.3905 252.817 40.2398 252.611 40.2398C252.176 40.2398 251.71 40.6417 251.214 41.4512C250.629 42.4264 250.121 43.4556 249.696 44.5272C249.183 45.7666 248.69 47.1399 248.218 48.6472C247.742 50.1601 247.312 51.6116 246.937 53.0073C246.563 54.403 246.239 55.6535 245.976 56.7477C245.713 57.8419 245.556 58.6179 245.47 59.0589C245.445 59.2439 245.43 59.4303 245.424 59.6172C245.424 60.4769 245.672 60.9012 246.163 60.9012C246.423 60.8884 246.675 60.7977 246.892 60.6388C247.231 60.3928 247.524 60.0784 247.757 59.7121C248.577 58.4847 249.292 57.1765 249.893 55.8042C250.574 54.2832 251.164 52.7148 251.66 51.1092C252.161 49.5133 252.562 47.8811 252.859 46.2244C253.145 44.7409 253.297 43.23 253.315 41.7136Z" fill="#D8CD7D"/>
<path d="M262.253 41.8587C262.261 42.4642 262.129 43.0618 261.868 43.5949C261.597 44.1539 261.286 44.6878 260.937 45.1916L260.866 44.8622C261.181 44.4641 261.448 44.0232 261.661 43.5503C261.806 43.1319 261.873 42.6858 261.858 42.2384C261.858 41.0325 261.59 40.4296 261.048 40.4296C260.633 40.4296 260.095 40.9692 259.434 42.0486C258.832 43.0609 258.3 44.1207 257.84 45.2195C257.273 46.537 256.741 47.9494 256.245 49.4567C255.774 50.9331 255.37 52.4349 255.036 53.9564C254.727 55.2493 254.557 56.5778 254.529 57.9145C254.505 58.5904 254.612 59.2643 254.843 59.8907C254.914 60.1074 255.044 60.2946 255.216 60.4265C255.387 60.5584 255.591 60.6287 255.8 60.6276C256.534 60.6123 257.237 60.2981 257.774 59.7456C258.421 59.1324 258.993 58.4286 259.474 57.6521C259.967 56.8677 260.399 56.0384 260.765 55.1734C261.05 54.5124 261.306 53.8361 261.529 53.1469H261.803C261.476 54.1992 261.087 55.2268 260.639 56.2229C260.232 57.1295 259.745 57.9897 259.186 58.7909C258.712 59.4791 258.137 60.0753 257.485 60.5551C256.934 60.969 256.284 61.1943 255.618 61.2026C255.28 61.2014 254.953 61.0762 254.687 60.8467C254.421 60.6172 254.232 60.2965 254.15 59.9354C253.843 58.9309 253.699 57.8744 253.725 56.8147C253.735 55.6911 253.831 54.5706 254.013 53.4651C254.211 52.2122 254.473 50.9727 254.798 49.7526C255.126 48.501 255.526 47.274 255.997 46.0792C256.426 44.975 256.945 43.9155 257.546 42.9139C258.033 42.0755 258.632 41.3228 259.323 40.6808C259.856 40.1609 260.539 39.8645 261.251 39.8434C261.413 39.8365 261.574 39.8869 261.708 39.9873C261.843 40.0877 261.945 40.2328 262 40.4017C262.162 40.8669 262.248 41.3603 262.253 41.8587Z" fill="#D8CD7D"/>
<path d="M268.428 47.6256C267.682 50.2309 266.862 52.8194 265.968 55.3911C265.722 56.0554 265.526 56.7406 265.381 57.4399C265.285 57.9261 265.234 58.4218 265.229 58.9193C265.232 59.1909 265.255 59.4617 265.3 59.7288C265.497 60.3652 265.771 60.6834 266.11 60.6834C266.449 60.6834 266.96 60.315 267.471 59.5669C267.926 58.9371 268.345 58.2771 268.727 57.5907C269.091 56.9431 269.486 56.2676 269.916 55.5642L270.078 55.8991L269.41 57.0156L268.727 58.1824C268.504 58.562 268.291 58.9193 268.084 59.2543L267.578 60.0861C267.336 60.3774 267.056 60.6276 266.748 60.8286C266.541 60.9562 266.311 61.0288 266.074 61.0407C265.863 61.0458 265.655 60.9709 265.487 60.8286C265.311 60.6626 265.167 60.4595 265.062 60.2312C264.874 59.8541 264.752 59.4412 264.703 59.0142C264.633 58.5342 264.597 58.0489 264.596 57.5627C264.587 57.0016 264.626 56.4408 264.713 55.8879C264.544 56.3346 264.375 56.7477 264.207 57.1273C263.913 57.8602 263.546 58.5548 263.114 59.1985C262.873 59.5564 262.614 59.8993 262.339 60.2257C262.137 60.382 261.914 60.5495 261.671 60.7225C261.468 60.8826 261.227 60.9738 260.978 60.9849C260.861 60.989 260.746 60.9552 260.647 60.8877C260.548 60.8201 260.47 60.7219 260.421 60.6053C260.182 59.9088 260.072 59.1666 260.097 58.4225C260.099 57.6082 260.165 56.7956 260.294 55.994C260.393 55.315 260.544 54.6464 260.745 53.9954L265.3 39.7932H266.479C266.322 40.3514 266.069 41.1609 265.715 42.2719C265.361 43.3828 264.956 44.6389 264.505 46.0346C264.055 47.4302 263.569 48.9096 263.073 50.4672C262.577 52.0247 262.106 53.4986 261.676 54.8998C261.58 55.1845 261.474 55.5251 261.352 55.9214C261.231 56.3178 261.109 56.7309 260.993 57.1608C260.876 57.5907 260.78 58.0038 260.704 58.4001C260.636 58.7208 260.597 59.048 260.588 59.3771C260.564 59.72 260.619 60.064 260.75 60.3764C260.789 60.4619 260.848 60.5341 260.921 60.5852C260.994 60.6364 261.078 60.6646 261.165 60.6667C261.396 60.6484 261.615 60.5464 261.787 60.3764C262.026 60.1834 262.243 59.9605 262.435 59.7121C262.982 59.0097 263.444 58.233 263.812 57.4009C264.217 56.4965 264.566 55.6591 264.86 54.8998L269.572 39.7932H270.751C269.948 42.4133 269.174 45.0241 268.428 47.6256Z" fill="#D8CD7D"/>
<path d="M276.845 48.1002L279.33 39.5699L280.53 39.2852C279.713 42.0802 278.925 44.8715 278.166 47.6591C277.407 50.4467 276.578 53.2195 275.681 55.9773C275.426 56.7047 275.218 57.4509 275.058 58.2104C274.958 58.7016 274.904 59.203 274.896 59.7065C274.897 59.9634 274.921 60.2196 274.967 60.4713C275.18 61.0296 275.473 61.2976 275.797 61.2362C276.121 61.1748 276.653 60.6165 277.159 59.7568C277.635 58.9919 278.065 58.2383 278.439 57.4902C278.814 56.7421 279.224 55.9773 279.654 55.1846L279.816 55.4693C279.583 55.8824 279.355 56.3123 279.133 56.7533C278.91 57.1943 278.682 57.6465 278.454 58.0875C278.227 58.5286 277.999 58.9473 277.781 59.3269L277.275 60.2815C277.017 60.6236 276.727 60.9343 276.41 61.2082C276.21 61.3802 275.989 61.5177 275.752 61.6158C275.557 61.6809 275.348 61.663 275.165 61.5655C274.984 61.4538 274.836 61.2896 274.734 61.091C274.546 60.7402 274.423 60.3509 274.375 59.9466C274.31 59.4904 274.276 59.0294 274.274 58.5677C274.29 57.6238 274.414 56.686 274.643 55.7763L276.668 48.7701L273.251 48.5803C273.241 48.6643 273.217 48.7456 273.18 48.8203C271.888 53.4874 270.788 57.4902 269.881 60.8286L268.681 61.0184C270.22 55.1083 271.352 50.8189 272.077 48.1504V47.9104H272.123C272.568 46.2635 272.846 45.2586 272.953 44.9125C273.246 43.9597 273.504 43.1093 273.727 42.3612C273.95 41.6131 274.178 40.7813 274.405 39.8602H275.676C275.338 41.0995 274.584 43.7997 273.413 47.9606L276.855 48.1057L276.845 48.1002Z" fill="#D8CD7D"/>
<path d="M287.838 41.8587C287.846 42.4641 287.714 43.0618 287.453 43.5949C287.182 44.1539 286.871 44.6878 286.522 45.1916L286.451 44.8622C286.766 44.4641 287.033 44.0232 287.246 43.5503C287.386 43.129 287.448 42.681 287.428 42.2328C287.428 41.0269 287.16 40.424 286.618 40.424C286.203 40.424 285.665 40.9636 285.004 42.043C284.402 43.0553 283.87 44.1151 283.409 45.2139C282.843 46.5314 282.311 47.9438 281.815 49.4511C281.34 50.9292 280.933 52.4328 280.595 53.9563C280.287 55.2493 280.117 56.5778 280.089 57.9144C280.065 58.5904 280.172 59.2643 280.403 59.8907C280.47 60.1117 280.597 60.3043 280.768 60.4414C280.938 60.5785 281.143 60.6534 281.355 60.6555C282.089 60.6402 282.792 60.326 283.329 59.7735C283.976 59.1603 284.547 58.4565 285.029 57.68C285.522 56.8956 285.954 56.0663 286.32 55.2013C286.605 54.5404 286.86 53.864 287.084 53.1748H287.357C287.031 54.2271 286.642 55.2547 286.193 56.2508C285.787 57.1574 285.3 58.0176 284.741 58.8188C284.266 59.507 283.692 60.1032 283.04 60.583C282.489 60.9969 281.839 61.2222 281.172 61.2305C280.835 61.2293 280.507 61.1041 280.241 60.8746C279.976 60.6451 279.787 60.3244 279.705 59.9633C279.397 58.9588 279.254 57.9023 279.279 56.8426C279.29 55.7191 279.386 54.5985 279.568 53.493C279.765 52.2401 280.027 51.0006 280.352 49.7805C280.68 48.5289 281.081 47.3019 281.552 46.1071C281.981 45.0028 282.499 43.9434 283.101 42.9418C283.588 42.1034 284.187 41.3507 284.877 40.7087C285.411 40.1888 286.094 39.8924 286.806 39.8713C286.968 39.8644 287.128 39.9148 287.263 40.0152C287.398 40.1156 287.5 40.2607 287.555 40.4296C287.724 40.884 287.82 41.3677 287.838 41.8587Z" fill="#D8CD7D"/>
<path d="M289.362 49.0046C291.386 44.8473 292.905 42.069 293.917 40.6697C295.212 38.8571 296.225 38.1407 296.954 38.5203C297.19 38.655 297.39 38.8559 297.534 39.1028C297.678 39.3497 297.761 39.634 297.774 39.9271C297.894 40.6376 297.809 41.372 297.531 42.0262C297.252 42.6738 296.933 42.9641 296.559 42.8804C296.184 42.7966 296.053 42.3835 296.194 41.6187C296.318 41.0952 296.318 40.5456 296.194 40.0221C296.078 39.7206 295.911 39.5699 295.688 39.5699C294.932 39.6369 293.723 41.2893 292.059 44.5273C291.094 46.2728 290.251 47.8285 289.529 49.1944C289.78 49.3009 290.008 49.4671 290.195 49.6813C290.382 49.8954 290.524 50.1523 290.612 50.4337C290.877 51.1123 291.011 51.8442 291.007 52.583C291.003 53.1268 290.952 53.669 290.855 54.202C290.753 54.7603 290.647 55.352 290.531 55.9382C290.414 56.5244 290.313 57.1161 290.217 57.7023C290.128 58.2553 290.083 58.8156 290.08 59.3771C290.057 59.7538 290.142 60.129 290.323 60.449C290.485 60.6835 290.637 60.8063 290.774 60.8063C291.219 60.8063 291.7 60.4657 292.216 59.7791C292.779 59.0228 293.287 58.2182 293.735 57.3729C294.224 56.4537 294.678 55.5325 295.096 54.6095C295.511 53.6884 295.835 52.9906 296.068 52.5105H296.321C296.012 53.2418 295.638 54.1071 295.187 55.112C294.752 56.0919 294.271 57.046 293.745 57.9703C293.287 58.7952 292.749 59.5627 292.14 60.2592C291.941 60.5246 291.695 60.7434 291.418 60.9025C291.141 61.0617 290.837 61.158 290.526 61.1859C290.187 61.1859 289.908 60.9459 289.696 60.4713C289.473 59.9676 289.362 59.4127 289.372 58.8524C289.372 58.5892 289.387 58.3263 289.417 58.0652C289.448 57.7972 289.483 57.5069 289.534 57.1831C289.584 56.8593 289.645 56.4462 289.741 55.9215C289.837 55.3967 289.923 54.8663 290.014 54.3248C290.106 53.7833 290.192 53.2697 290.257 52.7728C290.319 52.3874 290.355 51.9974 290.364 51.6061C290.417 51.0408 290.32 50.4707 290.085 49.9648C290.026 49.8508 289.942 49.7543 289.842 49.6834C289.742 49.6125 289.627 49.5692 289.508 49.5572C289.387 49.5574 289.271 49.6094 289.184 49.7024L285.839 61.1357H284.751C286.303 55.8991 287.669 51.286 288.85 47.2963C290.031 43.3065 290.897 40.3124 291.447 38.3138L292.788 38.124C292.275 39.5196 291.894 40.6362 291.644 41.4736C291.395 42.311 291.136 43.1688 290.87 44.0472L290.095 46.671C289.832 47.4805 289.589 48.2732 289.362 49.0046Z" fill="#D8CD7D"/>
<path d="M304.287 47.6256C303.545 50.2309 302.725 52.8194 301.828 55.3911C301.582 56.0554 301.386 56.7406 301.241 57.4399C301.145 57.9261 301.094 58.4218 301.089 58.9193C301.091 59.1909 301.115 59.4617 301.16 59.7288C301.357 60.3652 301.63 60.6834 301.969 60.6834C302.308 60.6834 302.82 60.315 303.331 59.5669C303.786 58.9371 304.205 58.2772 304.586 57.5907C304.951 56.9431 305.345 56.2676 305.775 55.5642L305.937 55.8991L305.269 57.0157L304.586 58.1824C304.363 58.562 304.151 58.9193 303.943 59.2543L303.437 60.0861C303.195 60.3774 302.915 60.6276 302.607 60.8286C302.401 60.9562 302.17 61.0288 301.934 61.0407C301.722 61.0458 301.515 60.9709 301.347 60.8286C301.171 60.6626 301.026 60.4595 300.922 60.2313C300.734 59.8541 300.612 59.4412 300.562 59.0142C300.492 58.5342 300.457 58.0489 300.456 57.5627C300.446 57.0017 300.485 56.4408 300.572 55.8879C300.405 56.3346 300.243 56.7477 300.066 57.1273C299.914 57.4937 299.745 57.8515 299.56 58.1992C299.378 58.5444 299.179 58.878 298.963 59.1985C298.722 59.5564 298.464 59.8994 298.189 60.2257C297.986 60.382 297.763 60.5495 297.52 60.7225C297.317 60.8827 297.076 60.9739 296.827 60.9849C296.711 60.989 296.596 60.9552 296.497 60.8877C296.398 60.8202 296.319 60.7219 296.27 60.6053C296.03 59.9053 295.92 59.1592 295.946 58.4113C295.948 57.597 296.014 56.7845 296.144 55.9829C296.243 55.3039 296.393 54.6353 296.594 53.9843L301.149 39.782H302.329C302.172 40.3402 301.919 41.1497 301.564 42.2607C301.21 43.3716 300.805 44.6277 300.355 46.0234C299.904 47.4191 299.418 48.8985 298.922 50.456C298.426 52.0136 297.956 53.4874 297.526 54.8887C297.429 55.1734 297.323 55.5139 297.202 55.9103C297.08 56.3067 296.959 56.7198 296.842 57.1496C296.726 57.5795 296.63 57.9926 296.554 58.389C296.486 58.7096 296.447 59.0369 296.437 59.3659C296.413 59.7088 296.469 60.0529 296.599 60.3652C296.638 60.4507 296.697 60.5229 296.77 60.5741C296.843 60.6252 296.928 60.6534 297.014 60.6555C297.245 60.6373 297.464 60.5352 297.637 60.3652C297.875 60.1723 298.093 59.9493 298.285 59.7009C298.833 59.0001 299.296 58.2231 299.661 57.3897C300.066 56.4853 300.416 55.6479 300.709 54.8887L305.421 39.782H306.6C305.801 42.4096 305.03 45.0241 304.287 47.6256Z" fill="#D8CD7D"/>
<path d="M313.241 47.6256C312.492 50.2309 311.672 52.8194 310.781 55.3911C310.533 56.0545 310.337 56.7399 310.194 57.4399C310.098 57.9261 310.047 58.4218 310.042 58.9193C310.042 59.1911 310.066 59.4621 310.113 59.7288C310.312 60.3652 310.58 60.6835 310.918 60.6835C311.318 60.6835 311.773 60.315 312.279 59.5669C312.737 58.9385 313.158 58.2784 313.54 57.5907C313.899 56.9431 314.299 56.2676 314.729 55.5642L314.891 55.8991C314.672 56.249 314.449 56.6212 314.223 57.0157L313.54 58.1824C313.317 58.5621 313.099 58.9193 312.892 59.2543L312.386 60.0861C312.143 60.3789 311.861 60.6293 311.55 60.8286C311.346 60.9571 311.117 61.0299 310.882 61.0407C310.67 61.0467 310.463 60.9718 310.295 60.8286C310.119 60.6614 309.973 60.4587 309.865 60.2313C309.679 59.8536 309.559 59.4408 309.511 59.0142C309.441 58.5342 309.405 58.0489 309.404 57.5627C309.395 57.0017 309.434 56.4408 309.521 55.888C309.349 56.3346 309.192 56.7477 309.015 57.1273C308.865 57.4948 308.696 57.8527 308.509 58.1992C308.327 58.5457 308.126 58.8794 307.906 59.1985C307.666 59.5551 307.409 59.8979 307.137 60.2257C306.935 60.382 306.712 60.5495 306.464 60.7225C306.262 60.8842 306.02 60.9755 305.77 60.9849C305.655 60.9886 305.541 60.9546 305.443 60.887C305.344 60.8195 305.267 60.7215 305.219 60.6053C304.976 59.906 304.866 59.1594 304.895 58.4113C304.897 57.5971 304.963 56.7845 305.092 55.9829C305.189 55.3033 305.339 54.6345 305.543 53.9843L310.098 39.782H311.272C311.12 40.3216 310.867 41.1479 310.513 42.2607C310.159 43.3735 309.754 44.6277 309.298 46.0234C308.843 47.4247 308.367 48.8985 307.866 50.456C307.365 52.0136 306.899 53.4874 306.469 54.8887L306.145 55.9103C306.023 56.3122 305.902 56.7198 305.791 57.1496C305.679 57.5795 305.578 57.9926 305.502 58.389C305.432 58.7091 305.393 59.0366 305.386 59.366C305.359 59.709 305.415 60.0537 305.548 60.3653C305.586 60.4511 305.645 60.5236 305.718 60.5749C305.791 60.6261 305.876 60.654 305.963 60.6555C306.193 60.6353 306.412 60.5335 306.585 60.3653C306.823 60.1708 307.04 59.948 307.233 59.7009C307.78 58.9998 308.241 58.2227 308.605 57.3897C309.015 56.4853 309.364 55.6479 309.658 54.8887L314.37 39.782H315.544C314.744 42.4096 313.977 45.0241 313.241 47.6256ZM311.91 33.7583C311.91 33.8532 311.91 33.4234 311.844 32.4687C311.814 31.8456 311.857 31.2209 311.971 30.6097C312.087 29.9788 312.325 29.6104 312.684 29.4932C313.044 29.3759 313.307 29.7667 313.459 30.6097C313.61 31.4527 313.322 32.519 312.583 33.8532C312.638 34.216 312.776 34.5573 312.984 34.8446C313.192 35.1319 313.464 35.3556 313.772 35.4945C314.41 35.7997 315.176 35.3717 316.07 34.2105C316.883 33.18 317.594 32.0572 318.191 30.8609C318.282 31.0858 318.298 31.3388 318.237 31.5755L317.417 33.0326C317.179 33.4568 316.961 33.8141 316.759 34.1044C315.794 35.6564 314.763 36.4008 313.666 36.3375C312.694 35.9802 312.112 35.1261 311.895 33.7583H311.91Z" fill="#D8CD7D"/>
<path d="M91.7671 66.6681H321" stroke="#E2D088" stroke-width="2" stroke-miterlimit="10"/>
</g>
<defs>
<linearGradient id="paint0_linear" x1="22.6748" y1="22.5819" x2="58.3015" y2="22.5819" gradientUnits="userSpaceOnUse">
<stop stop-color="#F6EAD0"/>
<stop offset="0.5" stop-color="#ECD6A5"/>
<stop offset="0.57" stop-color="#EBD4A0"/>
<stop offset="1" stop-color="#E6CA89"/>
</linearGradient>
<linearGradient id="paint1_linear" x1="11335.3" y1="17598.9" x2="13614.7" y2="17598.9" gradientUnits="userSpaceOnUse">
<stop stop-color="#F6EAD0"/>
<stop offset="0.5" stop-color="#ECD6A5"/>
<stop offset="0.57" stop-color="#EBD4A0"/>
<stop offset="1" stop-color="#E6CA89"/>
</linearGradient>
<linearGradient id="paint2_linear" x1="11857" y1="10191.8" x2="16298.8" y2="10191.8" gradientUnits="userSpaceOnUse">
<stop stop-color="#F6EAD0"/>
<stop offset="0.5" stop-color="#ECD6A5"/>
<stop offset="0.57" stop-color="#EBD4A0"/>
<stop offset="1" stop-color="#E6CA89"/>
</linearGradient>
<linearGradient id="paint3_linear" x1="8424.35" y1="18719.2" x2="10702" y2="18719.2" gradientUnits="userSpaceOnUse">
<stop stop-color="#F6EAD0"/>
<stop offset="0.5" stop-color="#ECD6A5"/>
<stop offset="0.57" stop-color="#EBD4A0"/>
<stop offset="1" stop-color="#E6CA89"/>
</linearGradient>
<linearGradient id="paint4_linear" x1="10202" y1="20413.3" x2="12737.8" y2="20413.3" gradientUnits="userSpaceOnUse">
<stop stop-color="#F6EAD0"/>
<stop offset="0.5" stop-color="#ECD6A5"/>
<stop offset="0.57" stop-color="#EBD4A0"/>
<stop offset="1" stop-color="#E6CA89"/>
</linearGradient>
<linearGradient id="paint5_linear" x1="14421.8" y1="11724.2" x2="18848.9" y2="11724.2" gradientUnits="userSpaceOnUse">
<stop stop-color="#F6EAD0"/>
<stop offset="0.5" stop-color="#ECD6A5"/>
<stop offset="0.57" stop-color="#EBD4A0"/>
<stop offset="1" stop-color="#E6CA89"/>
</linearGradient>
<clipPath id="clip0">
<rect width="321" height="103" fill="white"/>
</clipPath>
</defs>
</svg>
