<svg width="29" height="29" viewBox="0 0 29 29" fill="none" xmlns="http://www.w3.org/2000/svg">
<path fill-rule="evenodd" clip-rule="evenodd" d="M0.977277 14.8728C1.3081 22.4244 7.69134 28.2777 15.2346 27.9465C22.7779 27.6153 28.6248 21.225 28.2939 13.6734C27.9631 6.12181 21.5799 0.2685 14.0366 0.599693C6.4933 0.930887 0.646449 7.32117 0.977277 14.8728ZM18.8985 12.9705C19.0464 13.0991 19.0866 13.361 19.0866 13.361L19.1248 14.2328C19.1248 14.2328 19.3224 16.151 17.6675 17.9211C15.862 19.8515 12.1907 21.6473 12.1907 21.6473C12.1907 21.6473 11.9494 21.7522 11.8267 21.6554C11.6881 21.5464 11.6659 21.2336 11.6659 21.2336L11.5614 19.1505C11.5614 19.1505 11.5842 18.9529 11.6795 18.808C11.7584 18.688 11.9115 18.6162 11.9115 18.6162C11.9115 18.6162 12.7319 18.2429 13.4678 17.7639C14.9048 16.8281 15.2095 16.4087 15.0384 16.1204C14.7894 15.6996 12.9401 15.9102 12.9401 15.9102C12.9401 15.9102 12.2669 15.9319 11.9767 16.1697C11.7521 16.354 11.6986 16.6851 11.6861 16.8308C11.6759 16.9491 11.4002 16.7683 11.2697 16.5238C11.0735 16.1565 11.034 15.495 11.0074 14.7121C10.987 14.1019 11.0164 13.9248 11.0626 13.684C11.1692 13.1253 11.5893 13.1242 12.4959 13.1217C12.767 13.121 13.0816 13.1201 13.4444 13.1042C13.526 13.1006 13.613 13.0992 13.7025 13.0978C14.1667 13.0903 14.6982 13.0818 14.8822 12.7616C14.9759 12.5974 14.8728 12.2109 13.2045 11.3057C12.4134 10.8766 11.4924 10.5697 11.4924 10.5697C11.4924 10.5697 11.3275 10.5005 11.2531 10.3858C11.1772 10.2683 11.1917 10.1048 11.1917 10.1048L11.0824 7.91249C11.0824 7.91249 10.9758 7.25676 11.2636 7.13764C11.5643 7.01222 12.2948 7.33894 13.505 8.1835C14.6531 8.98458 15.0803 9.38022 15.4404 9.32642C15.7036 9.28711 15.9309 9.00776 16.3775 8.4712C17.3108 7.35116 17.814 7.03982 17.9349 6.96502C17.9449 6.95881 17.9523 6.95424 17.9571 6.95096C18.7215 6.43353 18.8276 7.4495 18.8276 7.4495L18.9396 9.39649C18.9396 9.39649 19.039 9.81095 18.6924 10.3779C18.511 10.6749 18.2065 10.9707 17.9164 11.2525C17.4734 11.6828 17.0642 12.0803 17.1789 12.3992C17.372 12.9346 18.5177 12.8678 18.5177 12.8678C18.5177 12.8678 18.763 12.8528 18.8985 12.9705Z" fill="#D1C7AD"/>
</svg>
