<svg width="29" height="29" viewBox="0 0 29 29" fill="none" xmlns="http://www.w3.org/2000/svg">
<path fill-rule="evenodd" clip-rule="evenodd" d="M14.6292 28.5252C22.1772 28.7198 28.4537 22.7519 28.6481 15.1955C28.8424 7.63916 22.8811 1.35577 15.3331 1.16119C7.78504 0.966604 1.50858 6.93452 1.31421 14.4909C1.11985 22.0473 7.08117 28.3307 14.6292 28.5252ZM14.679 6.24304C19.1588 6.36032 22.71 10.1025 22.5965 14.5883L22.5964 14.5916C22.5609 15.9532 22.1852 17.2824 21.5072 18.454L22.5264 22.796L18.3448 21.5332C17.094 22.2134 15.6864 22.552 14.2541 22.5145C9.7733 22.3972 6.22168 18.6535 6.33703 14.1692C6.39395 11.9928 7.29283 9.97189 8.86848 8.47546C10.4441 6.97903 12.5076 6.1862 14.679 6.24304Z" fill="#D1C7AD"/>
<path fill-rule="evenodd" clip-rule="evenodd" d="M20.6459 20.7929L20.0412 18.2162L20.1939 17.9731C20.836 16.9507 21.1923 15.769 21.224 14.5556L21.224 14.5529C21.3199 10.8258 18.3677 7.71421 14.6432 7.61671C12.8384 7.56947 11.1233 8.22842 9.81364 9.4722C8.50402 10.716 7.75686 12.3957 7.70978 14.2018C7.61383 17.9318 10.5657 21.0434 14.2899 21.1409C15.5662 21.1743 16.8184 20.8488 17.9112 20.1997L18.1709 20.0455L20.6459 20.7929ZM16.3177 10.6035C16.3898 10.4635 16.4385 10.369 16.5077 10.3298C16.5937 10.2812 17.0003 10.2917 17.4703 10.4732C17.9403 10.6549 18.3523 11.4782 18.4005 11.8703C18.4438 12.2219 18.4543 12.6657 18.2871 13.1486C18.186 13.4415 18.0513 13.8169 17.8296 14.2965C16.9586 16.1811 15.0804 17.4214 14.7254 17.6558C14.7005 17.6722 14.6832 17.6837 14.6741 17.6901L14.6719 17.6917C14.5257 17.7956 13.5465 18.4917 12.5522 18.4661C11.6168 18.4419 11.1384 17.9693 10.9181 17.7518C10.9031 17.7369 10.8892 17.7232 10.8765 17.7109C10.678 17.5193 10.6328 17.2978 10.6363 17.1623C10.6398 17.0268 10.6445 16.8911 10.6535 16.7728C10.6546 16.7582 10.6549 16.743 10.6552 16.7273C10.6576 16.6088 10.6605 16.4611 11.0138 16.3244C11.1498 16.2719 11.3514 16.195 11.5639 16.1139C11.9938 15.95 12.4688 15.7688 12.5377 15.7365C12.6407 15.6883 12.7601 15.6575 12.8939 15.7288C12.914 15.7395 12.9329 15.7494 12.951 15.7588C13.0535 15.8124 13.1289 15.8518 13.2274 15.9408C13.2662 15.9758 13.308 16.012 13.3498 16.0482C13.433 16.1203 13.5163 16.1924 13.5753 16.2549C13.674 16.3593 13.7811 16.468 13.9875 16.3547C14.1938 16.2414 14.8692 15.8505 15.4232 15.2601C16.0188 14.6254 16.2779 14.0671 16.4093 13.7841C16.4349 13.7288 16.4557 13.684 16.4732 13.6513C16.5801 13.4507 16.5661 13.3316 16.4337 13.2096C16.3012 13.0875 15.8538 12.6861 15.654 12.5454C15.4543 12.4046 15.4916 12.2699 15.5641 12.0854C15.6368 11.9007 16.1537 10.914 16.2605 10.7133C16.2814 10.6741 16.3003 10.6375 16.3177 10.6035Z" fill="#D1C7AD"/>
</svg>
